<svg height="512pt" viewBox="0 -79 512 512" width="512pt" xmlns="http://www.w3.org/2000/svg"><path d="m483.902344 247.675781v-62.441406c0-22.988281-18.636719-41.625-41.625-41.625h-43.707032v-81.171875c0-34.484375-27.957031-62.4375-62.441406-62.4375h-203.964844c-57.476562 0-104.066406 46.59375-104.066406 104.066406v143.609375" fill="#ff5c64"/><path d="m442.277344 143.609375h-43.707032v-81.171875c0-34.484375-27.957031-62.4375-62.441406-62.4375h-31.21875c34.484375 0 62.4375 27.953125 62.4375 62.4375v85.335938c0 11.492187 9.320313 20.8125 20.8125 20.8125h43.707032c11.496093 0 20.816406 9.316406 20.816406 20.8125v58.277343h31.21875v-62.441406c0-22.988281-18.636719-41.625-41.625-41.625zm0 0" fill="#ff2444"/><path d="m501.59375 295.546875h-491.1875c-5.746094 0-10.40625-4.660156-10.40625-10.40625v-27.058594c0-5.746093 4.660156-10.40625 10.40625-10.40625h491.1875c5.746094 0 10.40625 4.660157 10.40625 10.40625v27.058594c0 5.746094-4.660156 10.40625-10.40625 10.40625zm0 0" fill="#88e9ff"/><g fill="#2dd3f9"><path d="m320.519531 287.21875c0 2.8125.144531 5.589844.421875 8.328125h161.496094c.28125-2.738281.421875-5.515625.421875-8.328125 0-14.359375-3.742187-27.839844-10.285156-39.542969h-141.765625c-6.542969 11.703125-10.289063 25.183594-10.289063 39.542969zm0 0"/><path d="m29.136719 287.21875c0 2.8125.144531 5.589844.421875 8.328125h161.5c.277344-2.738281.421875-5.515625.421875-8.328125 0-14.359375-3.746094-27.839844-10.289063-39.542969h-141.765625c-6.542969 11.703125-10.289062 25.183594-10.289062 39.542969zm0 0"/><path d="m501.59375 247.675781h-32.257812v20.8125c0 5.746094-4.660157 10.40625-10.410157 10.40625h-458.925781v6.242188c0 5.75 4.660156 10.410156 10.40625 10.410156h491.1875c5.746094 0 10.40625-4.660156 10.40625-10.410156v-27.054688c0-5.746093-4.660156-10.40625-10.40625-10.40625zm0 0"/></g><path d="m468.292969 287.21875c0 36.785156-29.820313 66.601562-66.601563 66.601562-36.785156 0-66.601562-29.816406-66.601562-66.601562 0-36.78125 29.816406-66.601562 66.601562-66.601562 36.78125 0 66.601563 29.820312 66.601563 66.601562zm0 0" fill="#57565c"/><path d="m401.691406 220.617188c-3.542968 0-7.015625.28125-10.40625.816406 31.835938 4.996094 56.195313 32.542968 56.195313 65.785156s-24.359375 60.792969-56.195313 65.789062c3.390625.53125 6.863282.8125 10.40625.8125 36.78125 0 66.601563-29.816406 66.601563-66.601562 0-36.78125-29.820313-66.601562-66.601563-66.601562zm0 0" fill="#424144"/><path d="m426.667969 287.21875c0 13.796875-11.183594 24.976562-24.976563 24.976562-13.792968 0-24.976562-11.179687-24.976562-24.976562 0-13.792969 11.183594-24.976562 24.976562-24.976562 13.792969 0 24.976563 11.183593 24.976563 24.976562zm0 0" fill="#c6e3f7"/><path d="m401.691406 262.242188c-3.714844 0-7.238281.820312-10.40625 2.273437 8.59375 3.949219 14.566406 12.625 14.566406 22.703125s-5.972656 18.757812-14.566406 22.703125c3.167969 1.457031 6.691406 2.273437 10.40625 2.273437 13.792969 0 24.976563-11.183593 24.976563-24.976562s-11.183594-24.976562-24.976563-24.976562zm0 0" fill="#aacee0"/><path d="m176.910156 287.21875c0 36.785156-29.816406 66.601562-66.601562 66.601562-36.78125 0-66.601563-29.816406-66.601563-66.601562 0-36.78125 29.820313-66.601562 66.601563-66.601562 36.785156 0 66.601562 29.820312 66.601562 66.601562zm0 0" fill="#57565c"/><path d="m110.308594 220.617188c-3.539063 0-7.015625.28125-10.40625.816406 31.839844 4.996094 56.195312 32.542968 56.195312 65.785156s-24.355468 60.792969-56.195312 65.789062c3.390625.53125 6.867187.8125 10.40625.8125 36.785156 0 66.601562-29.816406 66.601562-66.601562 0-36.78125-29.816406-66.601562-66.601562-66.601562zm0 0" fill="#424144"/><path d="m135.285156 287.21875c0 13.796875-11.183594 24.976562-24.976562 24.976562-13.792969 0-24.976563-11.179687-24.976563-24.976562 0-13.792969 11.183594-24.976562 24.976563-24.976562 13.792968 0 24.976562 11.183593 24.976562 24.976562zm0 0" fill="#c6e3f7"/><path d="m110.308594 262.242188c-3.714844 0-7.238282.820312-10.40625 2.273437 8.59375 3.949219 14.570312 12.625 14.570312 22.703125s-5.976562 18.757812-14.570312 22.703125c3.167968 1.457031 6.691406 2.273437 10.40625 2.273437 13.792968 0 24.976562-11.183593 24.976562-24.976562s-11.183594-24.976562-24.976562-24.976562zm0 0" fill="#aacee0"/><path d="m252.878906 143.609375h104.0625v-72.84375c0-17.242187-13.976562-31.222656-31.21875-31.222656h-72.84375zm0 0" fill="#c6e3f7"/><path d="m337.097656 41.691406c.722656 2.632813 1.113282 5.398438 1.113282 8.257813v52.035156c0 11.496094-9.316407 20.8125-20.8125 20.8125h-64.519532v20.8125h104.066406v-72.84375c-.003906-13.226563-8.230468-24.523437-19.847656-29.074219zm0 0" fill="#aacee0"/><path d="m209.171875 143.609375h-136.324219v-52.03125c0-28.738281 23.292969-52.035156 52.03125-52.035156h84.292969zm0 0" fill="#c6e3f7"/><path d="m187.316406 39.546875v62.4375c0 11.496094-9.316406 20.8125-20.8125 20.8125h-93.65625v20.8125h136.324219v-104.0625zm0 0" fill="#aacee0"/><path d="m442.277344 143.609375h-2.082032v22.894531c0 11.496094 9.316407 20.8125 20.8125 20.8125h22.894532v-2.082031c0-22.988281-18.636719-41.625-41.625-41.625zm0 0" fill="#ffe266"/></svg>