<svg height="512pt" viewBox="0 -63 512 511" width="512pt" xmlns="http://www.w3.org/2000/svg"><path d="m501.59375 321.019531h-481.820312c-5.75 0-10.410157-4.65625-10.410157-10.40625v-24.972656c0-5.75 4.660157-10.40625 10.410157-10.40625h481.820312c5.746094 0 10.40625 4.65625 10.40625 10.40625v24.972656c0 5.75-4.660156 10.40625-10.40625 10.40625zm0 0" fill="#88e9ff"/><g fill="#2dd3f9"><path d="m320.339844 275.230469c-9.058594 12.984375-14.390625 28.761719-14.390625 45.789062h160.261719c0-17.027343-5.328126-32.804687-14.386719-45.789062zm0 0"/><path d="m39.363281 275.230469c-9.058593 12.984375-14.386719 28.761719-14.386719 45.789062h160.257813c0-17.027343-5.328125-32.804687-14.386719-45.789062zm0 0"/><path d="m501.59375 275.230469h-10.40625v17.691406c0 5.75-4.660156 10.40625-10.40625 10.40625h-471.414062v7.285156c0 5.746094 4.65625 10.40625 10.40625 10.40625h481.820312c5.746094 0 10.40625-4.660156 10.40625-10.40625v-24.976562c0-5.746094-4.660156-10.40625-10.40625-10.40625zm0 0"/></g><path d="m492.226562 275.230469v-91.949219c0-8.5625-5.242187-16.25-13.210937-19.378906l-32.695313-12.820313c-4.625-1.8125-8.445312-5.21875-10.777343-9.605469l-34.222657-64.371093c-3.613281-6.796875-10.683593-11.042969-18.378906-11.042969h-98.84375v209.171875h208.128906zm0 0" fill="#ffe266"/><path d="m479.011719 163.902344-32.691407-12.820313c-4.625-1.8125-8.449218-5.21875-10.78125-9.605469l-34.222656-64.371093c-3.613281-6.796875-10.679687-11.042969-18.375-11.042969h-26.597656c7.453125 0 14.335938 3.984375 18.046875 10.445312l46.65625 81.21875c2.292969 3.992188 5.847656 7.109376 10.101563 8.867188l34.875 14.402344c3.890624 1.609375 6.433593 5.40625 6.433593 9.621094v84.613281h19.769531v-91.949219c0-8.5625-5.242187-16.25-13.214843-19.378906zm0 0" fill="#fcd21d"/><path d="m316.359375 98.320312h53.070313l24.976562 49.953126h-78.046875zm0 0" fill="#88e9ff"/><path d="m369.429688 98.320312h-18.210938l10.683594 21.363282c3.457031 6.917968-1.574219 15.058594-9.308594 15.058594h-36.234375v13.53125h78.046875zm0 0" fill="#2dd3f9"/><path d="m33.300781 275.230469-32.5-76.167969c-.527343-1.238281-.800781-2.574219-.800781-3.921875v-94.738281h284.097656v174.828125zm0 0" fill="#8ef26d"/><path d="m366.308594 10.90625c0-5.746094-4.660156-10.40625-10.40625-10.40625h-85.332032c-11.496093 0-20.8125 9.316406-20.8125 20.8125v44.75h-239.757812c-5.523438 0-10 4.476562-10 10v24.339844h284.097656v-65.558594h71.804688c5.746094 0 10.40625-4.660156 10.40625-10.410156zm0 0" fill="#8ef26d"/><path d="m355.902344.5h-10.40625v7.285156c0 5.746094-4.660156 10.40625-10.40625 10.40625h-56.195313c-5.746093 0-10.40625 4.660156-10.40625 10.40625v45.789063c0 5.746093-4.660156 10.40625-10.40625 10.40625h-258.082031v15.609375h256v126.957031c0 11.496094-9.316406 20.816406-20.8125 20.816406h-10.40625v-73.886719c0-8.328124 4.902344-15.492187 11.96875-18.820312-2.6875-1.265625-5.679688-1.992188-8.847656-1.992188-11.496094 0-20.8125 9.316407-20.8125 20.8125v73.886719h-56.195313v-73.886719c0-8.328124 4.902344-15.492187 11.96875-18.820312-2.6875-1.265625-5.679687-1.992188-8.847656-1.992188-11.492187 0-20.8125 9.316407-20.8125 20.8125v73.886719h-56.195313v-73.886719c0-8.328124 4.902344-15.492187 11.96875-18.820312-2.6875-1.265625-5.679687-1.992188-8.84375-1.992188-11.496093 0-20.816406 9.316407-20.816406 20.8125v73.886719h-37.558594l11.542969 27.054688h250.796875v-240.386719h71.804688c5.75 0 10.40625-4.660156 10.40625-10.410156v-13.527344c0-5.746094-4.660156-10.40625-10.40625-10.40625zm0 0" fill="#72dd4b"/><path d="m450.601562 321.019531c0 35.636719-28.886718 64.519531-64.519531 64.519531-35.632812 0-64.519531-28.882812-64.519531-64.519531 0-35.632812 28.886719-64.519531 64.519531-64.519531 35.632813 0 64.519531 28.886719 64.519531 64.519531zm0 0" fill="#57565c"/><path d="m386.082031 256.5c-3.546875 0-7.019531.296875-10.40625.847656 30.683594 4.976563 54.113281 31.585938 54.113281 63.671875 0 32.089844-23.429687 58.699219-54.113281 63.675781 3.386719.546876 6.859375.84375 10.40625.84375 35.632813 0 64.519531-28.886718 64.519531-64.519531 0-35.632812-28.886718-64.519531-64.519531-64.519531zm0 0" fill="#424144"/><path d="m415.21875 321.019531c0 16.09375-13.046875 29.140625-29.136719 29.140625-16.09375 0-29.140625-13.046875-29.140625-29.140625 0-16.089843 13.046875-29.136719 29.140625-29.136719 16.089844 0 29.136719 13.046876 29.136719 29.136719zm0 0" fill="#c6e3f7"/><path d="m386.082031 291.882812c-3.667969 0-7.175781.683594-10.40625 1.921876 10.953125 4.1875 18.730469 14.792968 18.730469 27.214843 0 12.425781-7.777344 23.027344-18.730469 27.21875 3.230469 1.238281 6.738281 1.921875 10.40625 1.921875 16.089844 0 29.136719-13.046875 29.136719-29.140625 0-16.089843-13.042969-29.136719-29.136719-29.136719zm0 0" fill="#aacee0"/><path d="m169.625 321.019531c0 35.636719-28.886719 64.519531-64.519531 64.519531-35.632813 0-64.519531-28.882812-64.519531-64.519531 0-35.632812 28.886718-64.519531 64.519531-64.519531 35.632812 0 64.519531 28.886719 64.519531 64.519531zm0 0" fill="#57565c"/><path d="m105.105469 256.5c-3.542969 0-7.015625.296875-10.40625.847656 30.683593 4.976563 54.113281 31.585938 54.113281 63.671875 0 32.089844-23.429688 58.699219-54.113281 63.675781 3.390625.546876 6.863281.84375 10.40625.84375 35.632812 0 64.519531-28.886718 64.519531-64.519531 0-35.632812-28.886719-64.519531-64.519531-64.519531zm0 0" fill="#424144"/><path d="m134.242188 321.019531c0 16.09375-13.042969 29.140625-29.136719 29.140625s-29.136719-13.046875-29.136719-29.140625c0-16.089843 13.042969-29.136719 29.136719-29.136719s29.136719 13.046876 29.136719 29.136719zm0 0" fill="#c6e3f7"/><path d="m105.105469 291.882812c-3.667969 0-7.171875.683594-10.40625 1.921876 10.953125 4.1875 18.730469 14.792968 18.730469 27.214843 0 12.425781-7.777344 23.027344-18.730469 27.21875 3.234375 1.238281 6.738281 1.921875 10.40625 1.921875 16.09375 0 29.136719-13.046875 29.136719-29.140625 0-16.089843-13.042969-29.136719-29.136719-29.136719zm0 0" fill="#aacee0"/><path d="m336.128906 187.296875h-19.769531c-4.3125 0-7.804687-3.492187-7.804687-7.804687s3.492187-7.804688 7.804687-7.804688h19.769531c4.3125 0 7.804688 3.492188 7.804688 7.804688s-3.492188 7.804687-7.804688 7.804687zm0 0" fill="#fcd21d"/></svg>