<svg height="511pt" viewBox="1 -63 511.999 511" width="511pt" xmlns="http://www.w3.org/2000/svg">
<path d="m333.007812 249.734375c-4.3125 0-7.804687-3.492187-7.804687-7.804687v-37.367188c0-64.515625-35.664063-122.886719-93.070313-152.324219l-24.441406-12.535156c-3.835937-1.964844-5.351562-6.671875-3.386718-10.503906 1.96875-3.835938 6.671874-5.351563 10.507812-3.386719l24.441406 12.535156c30.589844 15.6875 56.234375 39.488282 74.160156 68.824219 17.925782 29.332031 27.398438 63.011719 27.398438 97.390625v37.367188c0 4.3125-3.492188 7.804687-7.804688 7.804687zm0 0" fill="#424144"/>
<path d="m53.066406 192.5c-3.554687 0-6.765625-2.441406-7.597656-6.050781l-15.609375-67.640625c-.96875-4.199219 1.648437-8.390625 5.847656-9.359375s8.390625 1.648437 9.359375 5.847656l15.613282 67.644531c.96875 4.199219-1.652344 8.390625-5.851563 9.359375-.589844.132813-1.179687.199219-1.761719.199219zm0 0" fill="#424144"/>
<path d="m510.859375 319.089844-13.394531-31.8125c-1.28125-3.042969-4.265625-5.023438-7.566406-5.023438-3.046876 0-5.84375 1.691406-7.265626 4.386719l-18.503906 35.160156h-453.722656c-5.746094 0-10.40625 4.660157-10.40625 10.40625v11.707031c0 5.746094 4.660156 10.40625 10.40625 10.40625h491.1875c5.746094 0 10.40625-4.660156 10.40625-10.40625v-19.171874c0-1.941407-.386719-3.863282-1.140625-5.652344zm0 0" fill="#c6e3f7"/>
<path d="m55.113281 163.621094h180.984375c17.945313 0 35.019532 7.71875 46.875 21.191406l50.035156 56.859375h68.683594c34.484375 0 62.441406 27.953125 62.441406 62.4375v17.691406h-379.839843l-54.882813-97.789062c-1.492187-2.660157-1.742187-5.84375-.683594-8.707031l16.628907-44.890626c1.511719-4.082031 5.40625-6.792968 9.757812-6.792968zm0 0" fill="#0e13a1"/>
<path d="m401.691406 241.667969h-41.625c34.484375 0 62.4375 27.957031 62.4375 62.441406v17.691406h41.625v-17.691406c0-34.484375-27.953125-62.441406-62.4375-62.441406zm0 0" fill="#323cc2"/>
<path d="m233.105469 289.539062-114.472657-69.722656h-90.511718c.128906 1.457032.558594 2.890625 1.289062 4.195313l54.882813 97.789062h379.835937v-17.691406c0-5.019531-.609375-9.894531-1.726562-14.570313zm0 0" fill="#5d0a8a"/>
<path d="m309.605469 289.539062c-4.5625 4.90625-8.371094 10.519532-11.253907 16.652344h-121.546874c-7.300782-34.484375-37.90625-60.359375-74.5625-60.359375-19.164063 0-36.660157 7.085938-50.054688 18.761719l32.105469 57.203125h379.835937v-17.6875c0-5.019531-.609375-9.894531-1.726562-14.570313zm0 0" fill="#5d0a8a"/>
<path d="m6.996094 85.378906 58.40625 7.082032c2.050781.246093 3.847656 1.496093 4.796875 3.332031l9.796875 18.984375c2.285156 4.425781-1.277344 9.613281-6.230469 9.070312l-68.203125-7.484375c-3.164062-.347656-5.5625-3.023437-5.5625-6.207031v-18.578125c0-3.746094 3.277344-6.648437 6.996094-6.199219zm0 0" fill="#5d0a8a"/>
<path d="m65.402344 92.460938-16.414063-1.992188.394531.765625c3.804688 7.378906-2.132812 16.023437-10.382812 15.117187l-39-4.28125v8.085938c0 3.183594 2.398438 5.859375 5.5625 6.207031l68.203125 7.484375c4.953125.542969 8.515625-4.644531 6.230469-9.070312l-9.796875-18.980469c-.949219-1.839844-2.746094-3.089844-4.796875-3.335937zm0 0" fill="#5d0a8a"/>
<path d="m408.976562 333.898438c0 28.519531-23.121093 51.640624-51.644531 51.640624-28.519531 0-51.640625-23.121093-51.640625-51.640624 0-28.523438 23.121094-51.644532 51.640625-51.644532 28.523438 0 51.644531 23.121094 51.644531 51.644532zm0 0" fill="#57565c"/>
<path d="m357.332031 282.253906c-3.5625 0-7.042969.363282-10.40625 1.050782 23.535157 4.816406 41.234375 25.636718 41.234375 50.59375 0 24.953124-17.699218 45.777343-41.234375 50.59375 3.359375.6875 6.84375 1.046874 10.40625 1.046874 28.523438 0 51.644531-23.121093 51.644531-51.640624 0-28.523438-23.121093-51.644532-51.644531-51.644532zm0 0" fill="#424144"/>
<path d="m373.382812 333.898438c0 8.863281-7.1875 16.046874-16.050781 16.046874s-16.046875-7.183593-16.046875-16.046874c0-8.863282 7.183594-16.050782 16.046875-16.050782s16.050781 7.1875 16.050781 16.050782zm0 0" fill="#424144"/>
<path d="m165.722656 322.058594c0 35.0625-28.417968 63.480468-63.480468 63.480468-35.058594 0-63.476563-28.417968-63.476563-63.480468 0-35.058594 28.417969-63.476563 63.476563-63.476563 35.0625 0 63.480468 28.417969 63.480468 63.476563zm0 0" fill="#57565c"/>
<path d="m102.242188 258.582031c-4.503907 0-8.894532.476563-13.136719 1.367188 28.753906 6.050781 50.339843 31.558593 50.339843 62.109375 0 30.554687-21.585937 56.058594-50.339843 62.109375 4.242187.894531 8.632812 1.371093 13.136719 1.371093 35.0625 0 63.480468-28.421874 63.480468-63.480468s-28.417968-63.476563-63.480468-63.476563zm0 0" fill="#424144"/>
<path d="m118.292969 322.058594c0 8.867187-7.183594 16.050781-16.050781 16.050781-8.863282 0-16.046876-7.183594-16.046876-16.050781 0-8.863282 7.183594-16.046875 16.046876-16.046875 8.867187 0 16.050781 7.183593 16.050781 16.046875zm0 0" fill="#424144"/>
<path d="m212.292969 23.394531c0 12.644531-10.25 22.894531-22.894531 22.894531-12.644532 0-22.894532-10.25-22.894532-22.894531s10.25-22.894531 22.894532-22.894531c12.644531 0 22.894531 10.25 22.894531 22.894531zm0 0" fill="#ff5c64"/>
<path d="m198.09375 2.210938c1.101562 2.683593 1.710938 5.617187 1.710938 8.695312 0 12.644531-10.25 22.894531-22.894532 22.894531-3.078125 0-6.011718-.613281-8.691406-1.714843 3.421875 8.332031 11.613281 14.203124 21.179688 14.203124 12.644531 0 22.894531-10.25 22.894531-22.894531 0-9.566406-5.867188-17.757812-14.199219-21.183593zm0 0" fill="#ff2444"/>
<path d="m333.007812 241.667969-50.035156-56.859375c-11.855468-13.46875-28.929687-21.1875-46.875-21.1875h-61.269531l50.035156 56.859375c11.855469 13.46875 28.933594 21.1875 46.875 21.1875zm0 0" fill="#88e9ff"/>
<path d="m282.972656 184.8125c-11.5625-13.140625-28.09375-20.785156-45.546875-21.15625l31.464844 35.757812c5.914063 6.722657 1.140625 17.28125-7.8125 17.28125h-38.25c-.445313 0-.886719-.027343-1.328125-.035156l3.363281 3.820313c11.855469 13.46875 28.929688 21.1875 46.875 21.1875h61.269531zm0 0" fill="#2dd3f9"/>
<path d="m446 325.019531h15v15h-15zm0 0" fill="#c6e3f7"/></svg>