<svg height="512pt" viewBox="0 -20 512.00086 512" width="512pt" xmlns="http://www.w3.org/2000/svg"><path d="m317.390625 91.796875h63.308594v43.261719h-63.308594zm0 0" fill="#ffe266"/><path d="m363.816406 91.796875v16.882813c0 5.828124-4.722656 10.550781-10.550781 10.550781h-35.875v15.828125h63.308594v-43.261719zm0 0" fill="#fcd21d"/><path d="m341.660156 349.25c0 44.871094-36.375 81.246094-81.246094 81.246094-44.871093 0-81.246093-36.375-81.246093-81.246094zm0 0" fill="#57565c"/><path d="m339.890625 366.132812c.566406-2.679687 1.003906-5.410156 1.300781-8.179687.003906-.046875.011719-.097656.015625-.148437.132813-1.246094.226563-2.503907.300781-3.765626.007813-.171874.03125-.335937.039063-.507812.074219-1.417969.113281-2.84375.113281-4.28125h-162.492187c0 5.789062.617187 11.433594 1.769531 16.882812h112.972656c7.558594 0 12.660156 7.714844 9.71875 14.679688-10.335937 24.492188-32.332031 42.855469-59.042968 48.128906 5.121093 1.011719 10.410156 1.554688 15.828124 1.554688 39.078126 0 71.703126-27.597656 79.476563-64.363282zm0 0" fill="#424144"/><path d="m292.066406 349.25c0 17.484375-14.171875 31.65625-31.652344 31.65625-17.484374 0-31.65625-14.171875-31.65625-31.65625zm0 0" fill="#aacee0"/><path d="m179.167969 349.25c0 44.871094-36.375 81.246094-81.246094 81.246094-44.867187 0-81.242187-36.375-81.242187-81.246094zm0 0" fill="#57565c"/><path d="m177.402344 366.132812c.5625-2.679687 1-5.410156 1.296875-8.179687.003906-.046875.011719-.097656.019531-.148437.128906-1.246094.226562-2.503907.296875-3.765626.011719-.171874.03125-.335937.039063-.507812.074218-1.417969.113281-2.84375.113281-4.28125h-162.492188c0 5.789062.617188 11.433594 1.769531 16.882812h112.972657c7.5625 0 12.660156 7.714844 9.71875 14.679688-10.335938 24.492188-32.332031 42.855469-59.042969 48.128906 5.121094 1.011719 10.410156 1.554688 15.828125 1.554688 39.082031 0 71.707031-27.597656 79.476563-64.363282zm0 0" fill="#424144"/><path d="m129.578125 349.25c0 17.484375-14.171875 31.65625-31.65625 31.65625-17.480469 0-31.652344-14.171875-31.652344-31.65625zm0 0" fill="#aacee0"/><path d="m241.421875 218.414062v83.355469h199.421875s23.210938-20.046875 23.210938-83.355469c0-47.527343-13.082032-70.671874-19.605469-79.257812-1.976563-2.605469-5.078125-4.097656-8.34375-4.097656h-194.683594zm0 0" fill="#57565c"/><path d="m241.421875 218.414062v83.355469h199.421875s23.210938-20.046875 23.210938-83.355469c0-47.527343-13.082032-70.671874-19.605469-79.257812-1.976563-2.605469-5.078125-4.097656-8.34375-4.097656h-194.683594zm0 0" fill="#57565c"/><path d="m464.054688 218.414062c0-47.527343-13.082032-70.671874-19.605469-79.257812-1.976563-2.605469-5.078125-4.097656-8.347657-4.097656h-25.859374s23.214843 20.046875 23.214843 83.355468c0 18.496094-1.984375 33.296876-4.789062 44.988282-2.28125 9.503906-10.757813 16.210937-20.53125 16.210937h-166.714844v22.15625h199.421875c-.003906 0 23.210938-20.046875 23.210938-83.355469zm0 0" fill="#424144"/><path d="m359.597656 91.796875h21.101563l18.011719-18.011719c1.980468-1.980468 3.089843-4.664062 3.089843-7.460937v-27.132813c0-2.800781-1.109375-5.484375-3.089843-7.460937l-14.921876-14.921875c-1.980468-1.980469-4.664062-3.089844-7.460937-3.089844h-54.566406c-2.796875 0-5.480469 1.113281-7.460938 3.089844l-14.921875 14.921875c-1.980468 1.980469-3.089844 4.664062-3.089844 7.460937v27.132813c0 2.800781 1.113282 5.484375 3.089844 7.460937l18.011719 18.011719zm0 0" fill="#57565c"/><path d="m383.789062 16.808594c-.902343-.902344-1.953124-1.613282-3.089843-2.128906v19.992187c0 9.550781-3.796875 18.714844-10.550781 25.472656-6.757813 6.753907-15.917969 10.550781-25.472657 10.550781h-47.425781c.515625 1.136719 1.230469 2.1875 2.128906 3.089844l18.011719 18.011719h63.308594l18.011719-18.011719c1.980468-1.980468 3.089843-4.664062 3.089843-7.460937v-27.132813c0-2.800781-1.109375-5.484375-3.089843-7.460937zm0 0" fill="#424144"/><path d="m16.675781 301.769531h424.164063v47.480469h-424.164063zm0 0" fill="#88e9ff"/><path d="m219.261719 301.769531v17.9375c0 5.828125-4.722657 10.550781-10.550781 10.550781h-192.035157v18.992188h424.164063v-47.480469zm0 0" fill="#2dd3f9"/><path d="m189.191406 94.964844v80.1875h-120.285156v-80.1875h-52.230469v206.804687h224.746094v-206.804687zm0 0" fill="#ff5c64"/><path d="m16.675781 94.964844h52.230469v22.15625h-52.230469zm0 0" fill="#ff2444"/><path d="m219.261719 94.964844h-30.070313v22.15625h19.519532c5.828124 0 10.550781 4.722656 10.550781 10.550781v141.386719c0 5.828125-4.722657 10.554687-10.550781 10.554687h-192.035157v22.15625h224.746094v-206.808593h-22.160156zm0 0" fill="#ff2444"/><path d="m25.328125 0h207.445313c5.027343 0 9.359374 3.550781 10.34375 8.484375l14.773437 73.855469c1.304687 6.53125-3.6875 12.621094-10.347656 12.621094h-236.988281c-6.65625 0-11.652344-6.089844-10.34375-12.621094l14.769531-73.855469c.988281-4.933594 5.316406-8.484375 10.347656-8.484375zm0 0" fill="#88e9ff"/><path d="m232.773438 0h-18.996094l8.878906 44.398438c2.613281 13.058593-7.375 25.242187-20.691406 25.242187h-199.214844l-2.542969 12.703125c-1.304687 6.527344 3.691407 12.621094 10.347657 12.621094h236.988281c6.65625 0 11.652343-6.09375 10.34375-12.621094l-14.769531-73.859375c-.984376-4.933594-5.316407-8.484375-10.34375-8.484375zm0 0" fill="#2dd3f9"/><path d="m366.722656 430.496094h134.71875c7.40625 0 12.507813-7.433594 9.84375-14.34375l-41.460937-107.625c-1.570313-4.070313-5.484375-6.757813-9.847657-6.757813h-218.554687v47.480469h85.464844l30.046875 74.636719c1.609375 3.992187 5.484375 6.609375 9.789062 6.609375zm0 0" fill="#ffe266"/><path d="m312.113281 330.257812h-70.691406v18.992188h85.464844l-4.984375-12.382812c-1.609375-3.992188-5.480469-6.609376-9.789063-6.609376zm0 0" fill="#fcd21d"/><path d="m459.976562 301.769531h-13.929687l36.75 95.390625c2.664063 6.910156-2.4375 14.34375-9.847656 14.34375h-121l4.984375 12.382813c1.609375 3.992187 5.484375 6.609375 9.789062 6.609375h134.71875c7.40625 0 12.507813-7.433594 9.84375-14.34375l-41.460937-107.625c-1.570313-4.070313-5.484375-6.757813-9.847657-6.757813zm0 0" fill="#fcd21d"/><g style="fill:none;stroke-width:15;stroke-linecap:round;stroke-linejoin:round;stroke:#fcd21d;stroke-miterlimit:10" transform="translate(.000534 -40.75157)"><path d="m438.729934 373.118758 28.488282 67.53125"/><path d="m400.745559 373.118758 28.488282 67.53125"/><path d="m362.761184 373.118758 28.488282 67.53125"/></g></svg>