<?xml version="1.0" encoding="UTF-8" standalone="no"?>
<!-- Created with Inkscape (http://www.inkscape.org/) -->

<svg
   xmlns:dc="http://purl.org/dc/elements/1.1/"
   xmlns:cc="http://creativecommons.org/ns#"
   xmlns:rdf="http://www.w3.org/1999/02/22-rdf-syntax-ns#"
   xmlns:svg="http://www.w3.org/2000/svg"
   xmlns="http://www.w3.org/2000/svg"
   xmlns:xlink="http://www.w3.org/1999/xlink"
   xmlns:sodipodi="http://sodipodi.sourceforge.net/DTD/sodipodi-0.dtd"
   xmlns:inkscape="http://www.inkscape.org/namespaces/inkscape"
   width="75.006317mm"
   height="58.916664mm"
   viewBox="0 0 75.006317 58.916664"
   version="1.1"
   id="svg3073"
   inkscape:version="0.92+devel unknown"
   sodipodi:docname="windy.svg">
  <defs
     id="defs3067">
    <clipPath
       clipPathUnits="userSpaceOnUse"
       id="clipPath1402">
      <path
         sodipodi:nodetypes="cscccccc"
         inkscape:connector-curvature="0"
         id="path1404"
         d="m 165.44141,191.32227 c -14.34615,0.15172 -27.77809,6.21988 -32.82813,26.6582 -1.28189,5.188 0.0556,9.80469 2.65072,13.26106 2.59516,3.45637 3.16827,9.305 6.67741,11.64519 10.98185,5.88964 24.60554,6.46728 32.23242,-3.33594 3.17832,-4.21102 4.44531,-15.18945 4.44531,-15.18945 -0.19611,-10.78688 1.00327,-19.32348 -3.15982,-26.48702 -2.3322,-3.85157 -3.58284,-6.62014 -10.01791,-6.55204 z"
         style="opacity:1;fill:#b5582d;fill-opacity:1;stroke:none;stroke-width:1.53018379px;stroke-linecap:butt;stroke-linejoin:miter;stroke-opacity:1" />
    </clipPath>
    <linearGradient
       inkscape:collect="always"
       x1="3232.2"
       y1="1230.5"
       gradientTransform="matrix(1.5964363,0,0,1.5964363,-4011.5664,-2119.772)"
       x2="3237.5"
       gradientUnits="userSpaceOnUse"
       xlink:href="#linearGradient12261"
       y2="1234.7"
       id="linearGradient12598" />
    <linearGradient
       inkscape:collect="always"
       id="linearGradient12261">
      <stop
         offset="0"
         style="stop-color:#845a4a"
         id="stop12263" />
      <stop
         offset=".52373"
         style="stop-color:#814d35"
         id="stop12269" />
      <stop
         offset="1"
         style="stop-color:#845a4a"
         id="stop12265" />
    </linearGradient>
    <filter
       inkscape:collect="always"
       color-interpolation-filters="sRGB"
       id="filter12221">
      <feGaussianBlur
         inkscape:collect="always"
         stdDeviation="1.988037"
         id="feGaussianBlur12223" />
    </filter>
    <linearGradient
       inkscape:collect="always"
       x1="3294"
       y1="1371.9"
       x2="3302.7"
       gradientUnits="userSpaceOnUse"
       xlink:href="#linearGradient2856"
       y2="1382.8"
       id="linearGradient12600"
       gradientTransform="matrix(1.5964363,0,0,1.5964363,-3990.1055,-2374.5153)" />
    <linearGradient
       id="linearGradient2856"
       inkscape:collect="always">
      <stop
         id="stop2850"
         style="stop-color:#aa4400;stop-opacity:1"
         offset="0" />
      <stop
         id="stop2852"
         style="stop-color:#d45500;stop-opacity:1"
         offset=".52373" />
      <stop
         id="stop2854"
         style="stop-color:#aa4400;stop-opacity:1"
         offset="1" />
    </linearGradient>
    <filter
       inkscape:collect="always"
       color-interpolation-filters="sRGB"
       id="filter12303">
      <feGaussianBlur
         inkscape:collect="always"
         stdDeviation="2.1344863"
         id="feGaussianBlur12305" />
    </filter>
    <linearGradient
       inkscape:collect="always"
       x1="3273.2"
       y1="1365.6"
       x2="3264.3999"
       gradientUnits="userSpaceOnUse"
       y2="1375.3"
       id="linearGradient12602"
       gradientTransform="matrix(1.5964363,0,0,1.5964363,-3990.1055,-2374.5153)">
      <stop
         offset="0"
         style="stop-color:#554400;stop-opacity:1"
         id="stop12317" />
      <stop
         offset="1"
         style="stop-color:#806600;stop-opacity:1"
         id="stop12319" />
    </linearGradient>
    <linearGradient
       inkscape:collect="always"
       x1="3248.8999"
       y1="1416"
       x2="3272.3"
       gradientUnits="userSpaceOnUse"
       xlink:href="#linearGradient2872"
       y2="1416"
       id="linearGradient12604"
       gradientTransform="matrix(1.5964363,0,0,1.5964363,-3990.1055,-2374.5153)" />
    <linearGradient
       id="linearGradient2872"
       inkscape:collect="always">
      <stop
         id="stop2866"
         style="stop-color:#c83737;stop-opacity:1"
         offset="0" />
      <stop
         id="stop2868"
         style="stop-color:#782121;stop-opacity:1"
         offset=".52373" />
      <stop
         id="stop2870"
         style="stop-color:#c83737;stop-opacity:1"
         offset="1" />
    </linearGradient>
    <filter
       inkscape:collect="always"
       color-interpolation-filters="sRGB"
       id="filter12347">
      <feGaussianBlur
         inkscape:collect="always"
         stdDeviation="0.99966591"
         id="feGaussianBlur12349" />
    </filter>
    <linearGradient
       inkscape:collect="always"
       xlink:href="#linearGradient1608"
       id="linearGradient1634"
       x1="593.25745"
       y1="507.8671"
       x2="599.35901"
       y2="507.8671"
       gradientUnits="userSpaceOnUse"
       gradientTransform="matrix(0.4797934,0,0,0.6930349,539.24229,-11.946958)" />
    <linearGradient
       inkscape:collect="always"
       id="linearGradient1608">
      <stop
         id="stop1606"
         offset="0"
         style="stop-color:#ffffff;stop-opacity:1" />
      <stop
         style="stop-color:#ffffff;stop-opacity:1"
         offset="0.05546393"
         id="stop1620" />
      <stop
         style="stop-color:#e6e6e6;stop-opacity:1"
         offset="0.39514419"
         id="stop1618" />
      <stop
         style="stop-color:#cccccc;stop-opacity:1"
         offset="0.94638562"
         id="stop1614" />
      <stop
         id="stop1604"
         offset="1"
         style="stop-color:#808080;stop-opacity:1" />
    </linearGradient>
    <filter
       inkscape:collect="always"
       style="color-interpolation-filters:sRGB"
       id="filter1823"
       x="-0.040216554"
       width="1.0804331"
       y="-0.032583717"
       height="1.0651674">
      <feGaussianBlur
         inkscape:collect="always"
         stdDeviation="2.4692206"
         id="feGaussianBlur1825" />
    </filter>
    <radialGradient
       inkscape:collect="always"
       xlink:href="#linearGradient1772"
       id="radialGradient1774"
       cx="750.29468"
       cy="568.71283"
       fx="750.29468"
       fy="568.71283"
       r="57.507351"
       gradientTransform="matrix(1.323192,-0.68743639,0.47374245,0.91186938,-486.18335,578.696)"
       gradientUnits="userSpaceOnUse" />
    <linearGradient
       inkscape:collect="always"
       id="linearGradient1772">
      <stop
         id="stop1770"
         offset="0"
         style="stop-color:#ff0d0d;stop-opacity:1" />
      <stop
         id="stop1768"
         offset="1"
         style="stop-color:#b50000;stop-opacity:1" />
    </linearGradient>
    <linearGradient
       inkscape:collect="always"
       xlink:href="#linearGradient1794"
       id="linearGradient1796"
       x1="786.84949"
       y1="495.84482"
       x2="828.31946"
       y2="528.66107"
       gradientUnits="userSpaceOnUse"
       gradientTransform="rotate(-26.652712,806.16957,517.0102)" />
    <linearGradient
       inkscape:collect="always"
       id="linearGradient1794">
      <stop
         style="stop-color:#ec0000;stop-opacity:1;"
         offset="0"
         id="stop1790" />
      <stop
         id="stop1798"
         offset="0.21083885"
         style="stop-color:#b50000;stop-opacity:1" />
      <stop
         style="stop-color:#f40b0b;stop-opacity:1"
         offset="0.7047109"
         id="stop1802" />
      <stop
         style="stop-color:#b50000;stop-opacity:1"
         offset="0.8793062"
         id="stop1800" />
      <stop
         style="stop-color:#b50000;stop-opacity:1"
         offset="1"
         id="stop1792" />
    </linearGradient>
    <radialGradient
       inkscape:collect="always"
       xlink:href="#linearGradient1588"
       id="radialGradient1590"
       cx="700.93219"
       cy="431.10611"
       fx="700.93219"
       fy="431.10611"
       r="57.480892"
       gradientTransform="matrix(1.5761035,0.26063445,-0.18956217,1.146434,-344.42215,-179.48121)"
       gradientUnits="userSpaceOnUse" />
    <linearGradient
       inkscape:collect="always"
       id="linearGradient1588">
      <stop
         id="stop1586"
         offset="0"
         style="stop-color:#ffb380;stop-opacity:1" />
      <stop
         style="stop-color:#ff6600;stop-opacity:1"
         offset="0.8366071"
         id="stop1594" />
      <stop
         id="stop1584"
         offset="1"
         style="stop-color:#eb5e00;stop-opacity:1" />
    </linearGradient>
    <linearGradient
       inkscape:collect="always"
       xlink:href="#linearGradient1509"
       id="linearGradient1511"
       x1="777.83453"
       y1="523.18823"
       x2="798.23383"
       y2="480.61572"
       gradientUnits="userSpaceOnUse"
       gradientTransform="rotate(-26.652712,806.16957,517.0102)" />
    <linearGradient
       inkscape:collect="always"
       id="linearGradient1509">
      <stop
         style="stop-color:#ff6600;stop-opacity:1"
         offset="0"
         id="stop1505" />
      <stop
         id="stop1513"
         offset="0.21999812"
         style="stop-color:#ff6600;stop-opacity:1" />
      <stop
         style="stop-color:#f19474;stop-opacity:1"
         offset="0.51771933"
         id="stop1515" />
      <stop
         id="stop1517"
         offset="0.75595039"
         style="stop-color:#ff6600;stop-opacity:1" />
      <stop
         style="stop-color:#f46f26;stop-opacity:1"
         offset="1"
         id="stop1507" />
    </linearGradient>
    <radialGradient
       inkscape:collect="always"
       xlink:href="#linearGradient1740"
       id="radialGradient1742"
       cx="807.39581"
       cy="405.37723"
       fx="807.39581"
       fy="405.37723"
       r="28.151859"
       gradientTransform="matrix(-1.7847041,0.12004552,-0.22235425,-3.3057165,2275.2028,1630.8908)"
       gradientUnits="userSpaceOnUse" />
    <linearGradient
       inkscape:collect="always"
       id="linearGradient1740">
      <stop
         id="stop1738"
         offset="0"
         style="stop-color:#3783d1;stop-opacity:1" />
      <stop
         style="stop-color:#0f3c8a;stop-opacity:1"
         offset="0.63794518"
         id="stop1596" />
      <stop
         id="stop1736"
         offset="1"
         style="stop-color:#0c2c66;stop-opacity:1" />
    </linearGradient>
    <linearGradient
       inkscape:collect="always"
       xlink:href="#linearGradient1758"
       id="linearGradient1760"
       x1="755.91553"
       y1="459.00909"
       x2="807.237"
       y2="459.00909"
       gradientUnits="userSpaceOnUse"
       gradientTransform="rotate(-26.652712,806.16957,517.0102)" />
    <linearGradient
       inkscape:collect="always"
       id="linearGradient1758">
      <stop
         style="stop-color:#0f3c8a;stop-opacity:1;"
         offset="0"
         id="stop1754" />
      <stop
         id="stop1764"
         offset="0.20388953"
         style="stop-color:#0f3c8a;stop-opacity:1" />
      <stop
         id="stop1762"
         offset="0.47273096"
         style="stop-color:#3179c7;stop-opacity:1" />
      <stop
         style="stop-color:#0f3c8a;stop-opacity:1"
         offset="0.74157244"
         id="stop1766" />
      <stop
         style="stop-color:#0f3c8a;stop-opacity:1"
         offset="1"
         id="stop1756" />
    </linearGradient>
    <radialGradient
       inkscape:collect="always"
       xlink:href="#linearGradient671"
       id="radialGradient673"
       cx="909.98657"
       cy="455.91611"
       fx="909.98657"
       fy="455.91611"
       r="66.239204"
       gradientTransform="matrix(-1.1918685,0.681676,-0.40993751,-0.71675783,2142.5729,121.39013)"
       gradientUnits="userSpaceOnUse" />
    <linearGradient
       inkscape:collect="always"
       id="linearGradient671">
      <stop
         id="stop669"
         offset="0"
         style="stop-color:#65fd00;stop-opacity:1" />
      <stop
         style="stop-color:#59df00;stop-opacity:1;"
         offset="0.71575087"
         id="stop1600" />
      <stop
         id="stop667"
         offset="1"
         style="stop-color:#4ab800;stop-opacity:1" />
    </linearGradient>
    <linearGradient
       inkscape:collect="always"
       xlink:href="#linearGradient643"
       id="linearGradient645"
       x1="795.12958"
       y1="436.71286"
       x2="806.65967"
       y2="483.27652"
       gradientUnits="userSpaceOnUse"
       gradientTransform="rotate(-26.652712,806.16957,517.0102)" />
    <linearGradient
       inkscape:collect="always"
       id="linearGradient643">
      <stop
         style="stop-color:#55d400;stop-opacity:1;"
         offset="0"
         id="stop639" />
      <stop
         id="stop647"
         offset="0.1368262"
         style="stop-color:#55d400;stop-opacity:1" />
      <stop
         style="stop-color:#66ff00;stop-opacity:1"
         offset="0.37894213"
         id="stop649" />
      <stop
         id="stop651"
         offset="0.63678318"
         style="stop-color:#55d400;stop-opacity:1" />
      <stop
         style="stop-color:#55d400;stop-opacity:1"
         offset="1"
         id="stop641" />
    </linearGradient>
    <radialGradient
       inkscape:collect="always"
       xlink:href="#linearGradient681"
       id="radialGradient683"
       cx="864.1452"
       cy="549.40967"
       fx="864.1452"
       fy="549.40967"
       r="41.097683"
       gradientTransform="matrix(-1.5646659,-1.7690437,1.6316577,-1.4431471,1337.0566,2867.7884)"
       gradientUnits="userSpaceOnUse" />
    <linearGradient
       inkscape:collect="always"
       id="linearGradient681">
      <stop
         id="stop679"
         offset="0"
         style="stop-color:#ffdd54;stop-opacity:1" />
      <stop
         style="stop-color:#ffdc4f;stop-opacity:1"
         offset="0.28452662"
         id="stop1495" />
      <stop
         style="stop-color:#ffd103;stop-opacity:1"
         offset="0.68881565"
         id="stop1492" />
      <stop
         id="stop677"
         offset="1"
         style="stop-color:#e4bb00;stop-opacity:1" />
    </linearGradient>
    <linearGradient
       inkscape:collect="always"
       xlink:href="#linearGradient657"
       id="linearGradient659"
       x1="799.12079"
       y1="482.38959"
       x2="845.68439"
       y2="459.77295"
       gradientUnits="userSpaceOnUse"
       gradientTransform="rotate(-26.652712,806.16957,517.0102)" />
    <linearGradient
       inkscape:collect="always"
       id="linearGradient657">
      <stop
         style="stop-color:#ffd103;stop-opacity:1;"
         offset="0"
         id="stop653" />
      <stop
         id="stop661"
         offset="0.29128125"
         style="stop-color:#ffd103;stop-opacity:1" />
      <stop
         style="stop-color:#ffdd55;stop-opacity:1"
         offset="0.53610748"
         id="stop663" />
      <stop
         id="stop665"
         offset="0.78159422"
         style="stop-color:#ffd103;stop-opacity:1" />
      <stop
         style="stop-color:#ffd103;stop-opacity:1"
         offset="1"
         id="stop655" />
    </linearGradient>
    <radialGradient
       inkscape:collect="always"
       xlink:href="#linearGradient1608"
       id="radialGradient1610"
       cx="566.15363"
       cy="519.27258"
       fx="566.15363"
       fy="519.27258"
       r="17.962572"
       gradientTransform="matrix(0.68590513,0,0,0.67320266,94.54999,439.22259)"
       gradientUnits="userSpaceOnUse" />
    <linearGradient
       inkscape:collect="always"
       xlink:href="#linearGradient2386"
       id="linearGradient2388"
       x1="1013.3536"
       y1="180.99506"
       x2="1042.4762"
       y2="120.77064"
       gradientUnits="userSpaceOnUse"
       gradientTransform="translate(-93.745277,-255.40805)" />
    <linearGradient
       inkscape:collect="always"
       id="linearGradient2386">
      <stop
         style="stop-color:#ffdc51;stop-opacity:1;"
         offset="0"
         id="stop2381" />
      <stop
         style="stop-color:#ffdc51;stop-opacity:0;"
         offset="1"
         id="stop2383" />
    </linearGradient>
    <filter
       inkscape:collect="always"
       style="color-interpolation-filters:sRGB"
       id="filter2420"
       x="-0.035476986"
       width="1.070954"
       y="-0.018133666"
       height="1.0362673">
      <feGaussianBlur
         inkscape:collect="always"
         stdDeviation="0.49748045"
         id="feGaussianBlur2422" />
    </filter>
    <linearGradient
       inkscape:collect="always"
       xlink:href="#linearGradient2400"
       id="linearGradient2402"
       x1="918.91724"
       y1="182.97426"
       x2="983.10004"
       y2="197.67694"
       gradientUnits="userSpaceOnUse"
       gradientTransform="translate(-93.745277,-255.40805)" />
    <linearGradient
       inkscape:collect="always"
       id="linearGradient2400">
      <stop
         style="stop-color:#fb0c0c;stop-opacity:1;"
         offset="0"
         id="stop2396" />
      <stop
         style="stop-color:#fb0c0c;stop-opacity:0;"
         offset="1"
         id="stop2398" />
    </linearGradient>
    <filter
       inkscape:collect="always"
       style="color-interpolation-filters:sRGB"
       id="filter2412"
       x="-0.022245154"
       width="1.0444903"
       y="-0.094322339"
       height="1.1886446">
      <feGaussianBlur
         inkscape:collect="always"
         stdDeviation="0.67188491"
         id="feGaussianBlur2414" />
    </filter>
    <linearGradient
       inkscape:collect="always"
       xlink:href="#linearGradient2309"
       id="linearGradient2311"
       x1="886.96716"
       y1="94.192719"
       x2="894.88403"
       y2="164.03043"
       gradientUnits="userSpaceOnUse"
       gradientTransform="translate(-93.745277,-255.40805)" />
    <linearGradient
       inkscape:collect="always"
       id="linearGradient2309">
      <stop
         style="stop-color:#ffac74;stop-opacity:1;"
         offset="0"
         id="stop2305" />
      <stop
         style="stop-color:#ffac74;stop-opacity:0;"
         offset="1"
         id="stop2307" />
    </linearGradient>
    <filter
       inkscape:collect="always"
       style="color-interpolation-filters:sRGB"
       id="filter2357"
       x="-0.069294468"
       width="1.1385889"
       y="-0.014513332"
       height="1.0290267">
      <feGaussianBlur
         inkscape:collect="always"
         stdDeviation="0.44100497"
         id="feGaussianBlur2359" />
    </filter>
    <linearGradient
       inkscape:collect="always"
       xlink:href="#linearGradient2317"
       id="linearGradient2319"
       x1="960.48053"
       y1="37.643967"
       x2="898.84241"
       y2="64.221886"
       gradientUnits="userSpaceOnUse"
       gradientTransform="translate(-93.745277,-255.40805)" />
    <linearGradient
       inkscape:collect="always"
       id="linearGradient2317">
      <stop
         style="stop-color:#3681cf;stop-opacity:1;"
         offset="0"
         id="stop2313" />
      <stop
         style="stop-color:#3681cf;stop-opacity:0;"
         offset="1"
         id="stop2315" />
    </linearGradient>
    <filter
       inkscape:collect="always"
       style="color-interpolation-filters:sRGB"
       id="filter2329"
       x="-0.026467508"
       width="1.052935"
       y="-0.056263912"
       height="1.1125278">
      <feGaussianBlur
         inkscape:collect="always"
         stdDeviation="0.73816193"
         id="feGaussianBlur2331" />
    </filter>
    <linearGradient
       inkscape:collect="always"
       xlink:href="#linearGradient2365"
       id="linearGradient2367"
       x1="1038.5178"
       y1="87.406868"
       x2="989.60315"
       y2="41.036892"
       gradientUnits="userSpaceOnUse"
       gradientTransform="translate(-93.745277,-255.40805)" />
    <linearGradient
       inkscape:collect="always"
       id="linearGradient2365">
      <stop
         style="stop-color:#64fb00;stop-opacity:1;"
         offset="0"
         id="stop2361" />
      <stop
         style="stop-color:#64fb00;stop-opacity:0;"
         offset="1"
         id="stop2363" />
    </linearGradient>
    <filter
       inkscape:collect="always"
       style="color-interpolation-filters:sRGB"
       id="filter2377"
       x="-0.035165213"
       width="1.0703304"
       y="-0.036875386"
       height="1.0737509">
      <feGaussianBlur
         inkscape:collect="always"
         stdDeviation="0.78707278"
         id="feGaussianBlur2379" />
    </filter>
    <linearGradient
       inkscape:collect="always"
       xlink:href="#linearGradient2386"
       id="linearGradient2488"
       gradientUnits="userSpaceOnUse"
       x1="1013.3536"
       y1="180.99506"
       x2="1042.4762"
       y2="120.77064" />
    <linearGradient
       inkscape:collect="always"
       xlink:href="#linearGradient2400"
       id="linearGradient2490"
       gradientUnits="userSpaceOnUse"
       x1="918.91724"
       y1="182.97426"
       x2="983.10004"
       y2="197.67694" />
    <linearGradient
       inkscape:collect="always"
       xlink:href="#linearGradient2309"
       id="linearGradient2492"
       gradientUnits="userSpaceOnUse"
       x1="886.96716"
       y1="94.192719"
       x2="894.88403"
       y2="164.03043" />
    <linearGradient
       inkscape:collect="always"
       xlink:href="#linearGradient2317"
       id="linearGradient2494"
       gradientUnits="userSpaceOnUse"
       x1="960.48053"
       y1="37.643967"
       x2="898.84241"
       y2="64.221886" />
    <linearGradient
       inkscape:collect="always"
       xlink:href="#linearGradient2365"
       id="linearGradient2496"
       gradientUnits="userSpaceOnUse"
       x1="1038.5178"
       y1="87.406868"
       x2="989.60315"
       y2="41.036892" />
    <linearGradient
       inkscape:collect="always"
       xlink:href="#linearGradient2386"
       id="linearGradient4398"
       gradientUnits="userSpaceOnUse"
       x1="1013.3536"
       y1="180.99506"
       x2="1042.4762"
       y2="120.77064" />
    <linearGradient
       inkscape:collect="always"
       xlink:href="#linearGradient2400"
       id="linearGradient4400"
       gradientUnits="userSpaceOnUse"
       x1="918.91724"
       y1="182.97426"
       x2="983.10004"
       y2="197.67694" />
    <linearGradient
       inkscape:collect="always"
       xlink:href="#linearGradient2309"
       id="linearGradient4402"
       gradientUnits="userSpaceOnUse"
       x1="886.96716"
       y1="94.192719"
       x2="894.88403"
       y2="164.03043" />
    <linearGradient
       inkscape:collect="always"
       xlink:href="#linearGradient2317"
       id="linearGradient4404"
       gradientUnits="userSpaceOnUse"
       x1="960.48053"
       y1="37.643967"
       x2="898.84241"
       y2="64.221886" />
    <linearGradient
       inkscape:collect="always"
       xlink:href="#linearGradient2365"
       id="linearGradient4406"
       gradientUnits="userSpaceOnUse"
       x1="1038.5178"
       y1="87.406868"
       x2="989.60315"
       y2="41.036892" />
  </defs>
  <sodipodi:namedview
     id="base"
     pagecolor="#ffffff"
     bordercolor="#666666"
     borderopacity="1.0"
     inkscape:pageopacity="0.0"
     inkscape:pageshadow="2"
     inkscape:zoom="0.35"
     inkscape:cx="-368.25577"
     inkscape:cy="111.3386"
     inkscape:document-units="mm"
     inkscape:current-layer="layer1"
     inkscape:document-rotation="0"
     showgrid="false"
     fit-margin-top="3"
     fit-margin-right="3"
     fit-margin-bottom="3"
     fit-margin-left="3"
     inkscape:window-width="1600"
     inkscape:window-height="836"
     inkscape:window-x="0"
     inkscape:window-y="0"
     inkscape:window-maximized="1" />
  <metadata
     id="metadata3070">
    <rdf:RDF>
      <cc:Work
         rdf:about="">
        <dc:format>image/svg+xml</dc:format>
        <dc:type
           rdf:resource="http://purl.org/dc/dcmitype/StillImage" />
        <dc:title></dc:title>
      </cc:Work>
    </rdf:RDF>
  </metadata>
  <g
     inkscape:label="Ebene 1"
     inkscape:groupmode="layer"
     id="layer1"
     transform="translate(-68.330172,-119.375)">
    <g
       id="g1212"
       transform="matrix(0.2407351,0,0,0.2407351,-118.15368,117.70737)">
      <g
         transform="matrix(1.2852537,0.12745699,-0.12745699,1.2852537,-630.38319,193.19885)"
         id="g2882">
        <path
           id="path5458"
           d="m 1156.0069,-142.05878 c -0.085,-0.0559 -0.1245,-0.40086 -0.1149,-1.00575 0.016,-0.88076 -0.056,-1.30269 -0.2547,-1.51885 -0.2798,-0.30508 -1.0076,-0.36495 -1.508,-0.12452 -0.212,0.10217 -0.2797,0.11334 -0.3162,0.0559 -0.072,-0.11335 -0.061,-0.5115 0.03,-1.1638 0.1198,-0.79519 0.1054,-0.82648 0.2165,-1.65822 0.072,-0.54247 0.1038,-0.87692 0.089,-0.94174 -0.019,-0.0782 -0.2628,0.0878 -0.4901,0.33573 -0.1662,0.18056 -0.2095,0.29008 -0.3094,0.78337 -0.2093,1.03434 -0.5706,1.95356 -1.0433,2.65488 -0.4733,0.70243 -0.6566,0.86064 -0.8482,0.73308 -0.1484,-0.1341 -0.064,-0.64624 -0.027,-0.82456 0.086,-0.4221 0.019,-0.69349 -0.2126,-0.85936 l -0.1341,-0.0958 -0.3016,0.21776 c -0.4539,0.32743 -1.3913,1.37836 -1.8144,2.03418 -0.073,0.11334 -0.2003,0.29135 -0.2819,0.39496 l -0.1485,0.1879 -0.1309,-0.0878 c -0.1404,-0.0942 -0.1839,-0.27874 -0.1893,-0.80732 0,-0.16347 -0.027,-0.27251 -0.077,-0.33397 -0.042,-0.0495 -0.064,-0.11654 -0.05,-0.14847 0.016,-0.0319 0,-0.0303 -0.026,0 -0.027,0.0335 -0.1842,0.0591 -0.3494,0.0575 -0.7654,0 -2.5759,1.07409 -3.9518,2.36033 -0.2419,0.22606 -0.2694,0.23676 -0.3932,0.15486 -0.069,-0.0447 -0.091,-0.0974 -0.077,-0.18056 0.1102,-0.22973 0.3979,-0.64512 0.5192,-0.79135 0.8437,-1.36096 1.4254,-2.54472 2.0398,-3.38189 0.016,0 0.016,-0.0894 -0.016,-0.19748 -0.037,-0.21536 -0.016,-0.20802 -0.625,-0.16651 -0.1565,0.016 -0.224,-0.0192 -0.289,-0.12931 -0.064,-0.10856 -0.072,-0.16859 -0.034,-0.24761 0.027,-0.0575 0.3226,-0.36462 0.655,-0.68295 1.1207,-1.07313 1.6777,-1.78354 1.6126,-2.05733 -0.027,-0.11654 -0.1643,-0.0766 -0.6648,0.19157 -0.322,0.17242 -0.3643,0.18295 -0.4415,0.11175 -0.046,-0.0431 -0.082,-0.12452 -0.078,-0.17768 0.016,-0.12931 0.5275,-0.64975 1.4014,-1.40678 0.8959,-0.77571 1.4424,-1.35075 0.8763,-0.92178 -0.085,0.0654 -0.4124,0.21951 -0.7274,0.34499 -0.5072,0.20179 -0.5838,0.21935 -0.6666,0.15166 -0.083,-0.0686 -0.08,-0.099 0.048,-0.31067 0.158,-0.26325 0.2053,-0.47542 0.1791,-0.79902 -0.016,-0.20242 -0.037,-0.23036 -0.2432,-0.33924 -0.1405,-0.0734 -0.3925,-0.12292 -0.6708,-0.12771 -1.1723,-0.0255 -1.6944,-0.11335 -1.7376,-0.29055 -0.045,-0.18519 0.1848,-0.34021 1.2461,-0.84117 1.3431,-0.63378 1.5905,-0.82998 1.5046,-1.19238 -0.04,-0.16347 0,-0.19492 0.6708,-0.46983 0.5344,-0.2211 1.0064,-0.52794 1.1389,-0.74026 0.074,-0.11814 0.069,-0.53385 -0.016,-0.87629 -0.1293,-0.55556 0.081,-0.68104 1.0282,-0.61495 1.0241,0.0703 1.6642,-0.16283 2.0401,-0.74633 0.073,-0.11494 0.1673,-0.21264 0.2087,-0.21935 0.041,0 0.048,-0.0176 0.016,-0.0223 -0.042,0 -0.049,-0.13091 -0.027,-0.38538 0.065,-0.72047 -0.096,-1.55158 -0.4157,-2.15072 -0.1006,-0.18742 -0.1182,-0.25479 -0.08,-0.3046 0.078,-0.10377 0.2474,-0.13889 0.3335,-0.0686 0.1788,0.14687 0.6901,0.23595 1.2701,0.2227 0.7335,-0.016 1.1441,0.0319 1.6651,0.197 0.3815,0.12133 0.3959,0.12133 0.7511,-0.0255 0.4176,-0.1729 0.6743,-0.41971 0.8419,-0.80908 0.1326,-0.30971 0.2904,-0.35792 0.4177,-0.12771 0.048,0.0862 0.1681,0.21472 0.2672,0.28544 0.099,0.0702 0.1894,0.16587 0.2001,0.21185 0.016,0.0447 -0.029,0.2227 -0.089,0.39256 -0.1389,0.3924 -0.085,0.67928 0.1626,0.87916 0.288,0.23244 0.3441,0.22494 0.7435,-0.0974 0.6268,-0.50511 1.2923,-1.1729 1.8732,-1.87996 0.8075,-0.76325 1.1672,-1.5329 1.6947,-2.43999 0.2016,-0.34324 0.4047,-0.63666 0.451,-0.65231 0.1277,-0.0415 0.3732,0.099 0.4502,0.25911 0.051,0.10536 0.049,0.18502 -0.016,0.31354 -0.041,0.0958 -0.097,0.17912 -0.1213,0.18774 -0.043,0.016 -0.8551,0.96744 -1.3743,1.61272 -0.8952,1.11255 -1.82,2.10745 -2.5656,2.76008 -0.2335,0.20466 -0.2578,0.26516 -0.1309,0.32695 0.1485,0.0718 0.698,0.19939 1.1727,0.27123 0.824,0.12612 0.9643,0.17497 1.5671,0.55907 0.3211,0.20451 0.743,0.43136 0.9373,0.504 0.3906,0.14687 0.4821,0.23803 0.4026,0.40693 -0.057,0.12133 -0.2173,0.14847 -0.8806,0.14527 -0.3463,0 -0.7355,0.15646 -0.8815,0.35601 -0.093,0.12612 -0.097,0.17114 -0.027,0.34531 0.043,0.11015 0.1766,0.29247 0.297,0.40581 0.5255,0.49586 1.2185,1.22862 1.5084,1.59532 0.3669,0.46377 0.5396,0.77012 0.6951,1.23229 0.1373,0.40709 0.6625,1.2366 1.0058,1.58718 0.2302,0.23499 0.2495,0.27155 0.2219,0.4213 -0.022,0.12292 -0.07,0.17688 -0.1884,0.21679 -0.086,0.0287 -0.1756,0.0351 -0.197,0.016 -0.056,-0.0607 -1.1087,-0.20355 -1.701,-0.23085 -1.0224,-0.0463 -1.9528,0.0687 -2.125,0.26693 -0.091,0.10377 -0.1603,0.47382 -0.1309,0.69652 0.016,0.0655 0.022,0.25607 0.032,0.42354 0.019,0.35856 0.1742,0.80907 0.5902,1.7117 0.1533,0.33126 0.3394,0.80763 0.4149,1.05859 0.1293,0.4328 0.1325,0.46345 0.046,0.58941 -0.051,0.0734 -0.1357,0.14847 -0.1893,0.16507 -0.097,0.0319 -0.6997,0.0607 -1.0583,0.0511 -0.5275,-0.016 -0.7304,0.27331 -0.9817,1.39417 -0.2108,0.93951 -0.2608,1.03417 -0.5258,0.99602 -0.3094,-0.0447 -0.4371,0.0335 -0.6838,0.41874 -0.1261,0.19557 -0.2461,0.36351 -0.2687,0.37325 -0.022,0.016 -0.1404,0.18822 -0.2637,0.39688 -0.219,0.37292 -0.8795,1.32488 -1.0563,1.52252 -0.1006,0.11175 -0.2516,0.17688 -0.3149,0.1341 z"
           sodipodi:nodetypes="cssscccscssccscsssccscsccsccccssscsssssssscssssssssssscccssccsssssscsssccsssssscssssccssssscssscssssscsscscscc"
           style="fill:url(#linearGradient12598);stroke-width:1.59643626"
           inkscape:connector-curvature="0" />
        <path
           id="path12211"
           sodipodi:nodetypes="aaaaaaaacaaaaaaaa"
           style="opacity:0.2;fill:#e6e6e6;filter:url(#filter12221)"
           inkscape:connector-curvature="0"
           d="m 3245.6,1370.8 c 1.5582,1.8121 4.8546,1.9224 7.0889,1.0741 1.0457,-0.397 1.9684,-1.4738 2.1481,-2.5778 0.5062,-3.1105 -3.1432,-5.6697 -3.437,-8.8074 -0.326,-3.4817 -0.2013,-7.5413 1.9333,-10.311 3.7735,-4.8963 10.574,-8.0122 16.756,-7.9481 8.9659,0.093 18.728,4.8205 24.059,12.03 5.6556,7.6475 6.1972,18.744 4.7259,28.141 -1.4837,9.4762 -13.211,25.563 -13.211,25.563 0,0 11.924,-4.4299 15.574,-9.2371 5.1571,-6.7926 6.7622,-16.176 6.6592,-24.704 -0.1037,-8.5863 -2.2607,-17.754 -7.3037,-24.704 -3.931,-5.4175 -10.149,-9.3981 -16.541,-11.385 -6.4274,-1.9982 -13.657,-1.6081 -20.193,0 -4.945,1.2168 -10.206,3.234 -13.533,7.0889 -3.1223,3.617 -3.927,8.8223 -4.7259,13.533 -0.6824,4.024 -2.6611,9.1497 0,12.244 z"
           transform="matrix(1.5964363,0,0,1.5964363,-3990.1055,-2374.5153)" />
        <path
           id="path5454"
           sodipodi:nodetypes="cssscccscssccscsssccscsccsccccssscsssssssscssssssssssscccssccsssssscsssccsssssscssssccssssscssscssssscsscscscc"
           style="fill:url(#linearGradient12600);stroke-width:1.59643626"
           inkscape:connector-curvature="0"
           d="m 1275.2607,-158.50207 c -0.1405,-0.14049 -0.056,-0.73085 0.2449,-1.72495 0.4389,-1.44701 0.4966,-2.18329 0.2079,-2.6504 -0.4075,-0.65917 -1.8094,-1.16205 -2.9049,-1.04184 -0.4639,0.0511 -0.6027,0.0335 -0.6474,-0.083 -0.086,-0.2259 0.1198,-0.87868 0.604,-1.90567 0.6072,-1.24698 0.5921,-1.307 1.1986,-2.61927 0.3957,-0.85601 0.6138,-1.3913 0.6138,-1.50672 0,-0.14049 -0.5576,0 -1.1198,0.28273 -0.4106,0.20626 -0.5466,0.36319 -0.9728,1.12277 -0.894,1.59245 -2.0328,2.9111 -3.2885,3.8075 -1.2574,0.89784 -1.6911,1.0578 -2.0082,0.74075 -0.2292,-0.30508 0.1761,-1.10298 0.33,-1.37772 0.3665,-0.64959 0.3613,-1.13523 -0.018,-1.53769 l -0.2182,-0.23244 -0.694,0.19221 c -1.0445,0.28959 -3.3766,1.50592 -4.5137,2.35442 -0.1973,0.14687 -0.5294,0.37053 -0.7379,0.49617 l -0.3791,0.22861 -0.2181,-0.21823 c -0.2323,-0.23228 -0.2313,-0.56226 0,-1.43855 0.073,-0.27091 0.075,-0.46488 0,-0.59419 -0.056,-0.10537 -0.07,-0.22845 -0.029,-0.27299 0.04,-0.0447 0.018,-0.0495 -0.051,-0.016 -0.069,0.0399 -0.3896,0 -0.7132,-0.099 -1.5005,-0.43614 -5.562,0.34611 -8.8655,1.70755 -0.5807,0.23947 -0.6397,0.24202 -0.8445,0.0367 -0.1149,-0.11335 -0.1325,-0.21296 -0.065,-0.34036 0.3232,-0.31865 1.0827,-0.84515 1.3893,-1.01948 2.2925,-1.78067 3.9876,-3.41334 5.5852,-4.45598 0.029,0.016 0.062,-0.14048 0.077,-0.33046 0.027,-0.3766 0.078,-0.34914 -1.1504,-0.62197 -0.3135,-0.0702 -0.4309,-0.15645 -0.5072,-0.37405 -0.075,-0.21408 -0.062,-0.31864 0.049,-0.42768 0.081,-0.0798 0.8043,-0.42353 1.6057,-0.76501 2.7023,-1.15119 4.1279,-2.01614 4.1279,-2.50465 0,-0.20626 -0.2872,-0.21712 -1.3954,-0.0527 -0.7135,0.10696 -0.8014,0.10057 -0.9194,-0.0607 -0.072,-0.099 -0.1038,-0.24952 -0.07,-0.33653 0.08,-0.20977 1.3393,-0.78081 3.4096,-1.54678 2.1218,-0.78497 3.4637,-1.43185 2.1513,-1.03705 -0.1968,0.0591 -0.9125,0.1341 -1.59,0.16667 -1.0904,0.0527 -1.2492,0.0383 -1.3803,-0.11973 -0.1341,-0.16061 -0.1102,-0.20914 0.2374,-0.4874 0.4328,-0.34722 0.625,-0.6713 0.7244,-1.22047 0.062,-0.34355 0.035,-0.40103 -0.3194,-0.69541 -0.2416,-0.20019 -0.7144,-0.4197 -1.2582,-0.58398 -2.2915,-0.69285 -3.2768,-1.12676 -3.2786,-1.44365 0,-0.3311 0.5218,-0.45978 2.8407,-0.69876 2.9346,-0.30237 3.5124,-0.48915 3.5124,-1.13539 0,-0.29183 0.1021,-0.31865 1.537,-0.40438 1.1531,-0.0686 2.2235,-0.31386 2.5832,-0.59132 0.1991,-0.15325 0.3825,-0.84403 0.3862,-1.45387 0,-0.98947 0.4767,-1.08047 2.3071,-0.44573 1.9788,0.68599 3.3457,0.65406 4.3566,-0.10217 0.1971,-0.14687 0.4278,-0.2583 0.5123,-0.24633 0.085,0.016 0.1021,0 0.038,-0.0303 -0.078,-0.0351 -0.037,-0.24473 0.1277,-0.65167 0.4658,-1.15326 0.5378,-2.6156 0.1863,-3.78355 -0.1102,-0.36542 -0.1134,-0.48643 -0.016,-0.54806 0.2034,-0.12931 0.5516,-0.0942 0.6878,0.0703 0.2829,0.34084 1.246,0.77267 2.3914,1.07216 1.4496,0.37884 2.2336,0.68679 3.1801,1.24922 0.693,0.41172 0.7213,0.41874 1.4876,0.37308 0.9015,-0.0543 1.5209,-0.31897 2.0316,-0.86958 0.4063,-0.43774 0.7376,-0.43024 0.8803,0.0208 0.054,0.16906 0.2302,0.44796 0.3924,0.61973 0.1622,0.17178 0.2944,0.37932 0.2939,0.46105 -6e-4,0.0814 -0.162,0.35138 -0.3587,0.59883 -0.4545,0.57168 -0.4839,1.0752 -0.091,1.54279 0.4574,0.54359 0.5712,0.56275 1.5061,0.2524 1.4669,-0.48675 3.0859,-1.22095 4.5571,-2.06659 1.9426,-0.81322 3.0084,-1.88555 4.4678,-3.09134 0.5564,-0.45514 1.092,-0.82759 1.1903,-0.82759 0.2687,0 0.6868,0.37101 0.7638,0.67785 0.051,0.20227 0.016,0.33286 -0.16,0.51405 -0.1261,0.1341 -0.2727,0.24282 -0.3269,0.24282 -0.091,0 -2.1311,1.12389 -3.4523,1.90199 -2.2778,1.34149 -4.559,2.4724 -6.328,3.137 -0.5546,0.20834 -0.6304,0.29486 -0.41,0.46744 0.2574,0.20147 1.2782,0.71648 2.1777,1.09882 1.5606,0.66316 1.8128,0.82361 2.8182,1.79248 0.5355,0.51597 1.2585,1.12469 1.6067,1.35234 0.6995,0.4577 0.8359,0.66093 0.601,0.89576 -0.1681,0.16811 -0.4955,0.12293 -1.7979,-0.24888 -0.6794,-0.19397 -1.5175,-0.15006 -1.8981,0.099 -0.242,0.15805 -0.2697,0.22909 -0.2168,0.55476 0.034,0.20514 0.2107,0.5811 0.3941,0.83542 0.8015,1.11064 1.8214,2.70564 2.2202,3.47224 0.5045,0.96968 0.7012,1.57154 0.7909,2.42132 0.08,0.74873 0.7251,2.41046 1.2361,3.17994 0.3426,0.51613 0.3634,0.58733 0.2393,0.81913 -0.1022,0.19078 -0.2192,0.25384 -0.4711,0.25384 -0.1844,0 -0.3608,-0.0415 -0.3921,-0.0926 -0.081,-0.1309 -2.0838,-0.95131 -3.2345,-1.32488 -1.9868,-0.64512 -3.8695,-0.96808 -4.2999,-0.73771 -0.2271,0.12133 -0.5357,0.69397 -0.5815,1.07839 -0.016,0.11335 -0.073,0.43551 -0.1357,0.71728 -0.131,0.60265 -0.035,1.43296 0.3612,3.1552 0.1453,0.63186 0.2901,1.52252 0.3214,1.9791 0.054,0.78704 0.045,0.83892 -0.1844,0.99921 -0.1325,0.0926 -0.3348,0.16842 -0.4491,0.16762 -0.2045,0 -1.4028,-0.28799 -2.103,-0.50335 -1.0293,-0.31674 -1.5621,0.0463 -2.5787,1.75879 -0.8523,1.43536 -0.9947,1.56419 -1.4978,1.35394 -0.587,-0.24521 -0.8743,-0.18694 -1.5386,0.31258 -0.3375,0.25351 -0.6533,0.46408 -0.702,0.4676 -0.049,0 -0.3651,0.23292 -0.7032,0.50974 -0.6041,0.49426 -2.3463,1.70084 -2.7858,1.92929 -0.2492,0.12931 -0.5769,0.15326 -0.6815,0.0479 z" />
        <path
           id="path12206"
           sodipodi:nodetypes="cscccccccccsscccccccccc"
           style="opacity:0.43000004;fill:#e6e6e6;filter:url(#filter12303)"
           inkscape:connector-curvature="0"
           d="m 3230.9,1350.7 c 0,0 -19.403,2.7183 -26.438,8.7813 -5.5914,4.8195 -10.478,12.382 -10.031,19.75 4.2818,30.593 23.763,33.739 50.438,31 -16.096,7.7528 -24.635,7.9207 -42.531,5.1563 17.646,13.466 47.964,6.4911 62.885,-2.5721 17.553,-10.198 33.283,-29.242 25.834,-47.866 -2.3136,-5.3984 -7.4963,-9.5626 -12.781,-12.125 -3.8659,-1.8743 -12.75,-1.8437 -12.75,-1.8437 1.5984,19.025 -14.867,29.835 -22.781,30.688 -7.4273,0.5491 -16.06,0.09 -21.875,-4.5625 -2.8663,-2.2932 -4.8242,-6.3699 -4.5625,-10.031 0.2143,-2.9981 2.9342,-5.2985 4.875,-7.5937 2.8237,-3.3394 9.7188,-8.7812 9.7188,-8.7813 z m 41.91,4.6832 c 12.96,12.268 2.4717,29.282 -9.0974,36.754 -8.4149,5.3139 -18.77,8.4775 -28.719,8.2187 -9.3638,-0.2434 -19.76,-2.7185 -26.594,-9.125 -4.1362,-6.4882 -6.6323,-13.576 -0.9063,-20.812 4.9417,16.424 9.559,17.701 25.531,20.656 7.734,0.875 16.534,-1.8648 24.281,-4.8437 3.8168,-2.0187 7.4624,-4.7483 10.031,-8.2187 5.6858,-7.2936 7.2287,-13.447 5.4724,-22.629 z"
           transform="matrix(1.5964363,0,0,1.5964363,-3990.1055,-2374.5153)" />
        <path
           id="path5456"
           d="m 1214.4365,-187.71686 c 0.096,-0.1325 0.5857,-0.14048 1.4313,-0.0255 1.2314,0.16747 1.8361,0.11814 2.1774,-0.17672 0.4814,-0.41667 0.7068,-1.61943 0.4667,-2.49252 -0.1022,-0.36958 -0.1054,-0.48436 -0.016,-0.53592 0.1716,-0.10058 0.7286,-0.0176 1.6249,0.24154 1.0906,0.32998 1.1374,0.30986 2.2811,0.63091 0.746,0.20945 1.2087,0.31657 1.3024,0.30156 0.1149,-0.0191 -0.074,-0.45227 -0.3755,-0.87149 -0.221,-0.30604 -0.3659,-0.39592 -1.0375,-0.64304 -1.4086,-0.51757 -2.6266,-1.26949 -3.5178,-2.17132 -0.8919,-0.90342 -1.0784,-1.2342 -0.8624,-1.53274 0.2194,-0.22398 0.9177,-9.5e-4 1.1606,0.0878 0.5748,0.2128 0.968,0.14527 1.2453,-0.21408 l 0.1601,-0.20754 -0.2465,-0.538 c -0.3712,-0.80971 -1.6617,-2.54296 -2.4984,-3.35491 -0.1405,-0.14528 -0.3691,-0.38155 -0.4984,-0.53433 l -0.2349,-0.27778 0.1485,-0.20482 c 0.158,-0.21935 0.4266,-0.26086 1.1679,-0.18375 0.2293,0.024 0.3869,0 0.4828,-0.0734 0.078,-0.0591 0.1763,-0.0862 0.217,-0.0607 0.037,0.0335 0.041,0 0,-0.0431 -0.037,-0.0543 -0.046,-0.31658 -0.016,-0.59148 0.158,-1.27428 -1.0058,-4.46731 -2.5409,-6.96973 -0.2693,-0.44061 -0.2797,-0.48739 -0.1405,-0.6804 0.075,-0.11015 0.1565,-0.13569 0.2682,-0.0958 0.3005,0.22078 0.8275,0.76756 1.0087,0.99378 1.7429,1.62788 3.2889,2.78977 4.3432,3.94974 0,0.0255 0.1213,0.0335 0.2783,0.0192 0.3089,-0.0271 0.2932,0.0176 0.3545,-1.01454 0.016,-0.26341 0.07,-0.36989 0.2379,-0.45961 0.1638,-0.0894 0.2502,-0.0926 0.3533,-0.016 0.069,0.0607 0.4488,0.59691 0.83,1.20276 1.2861,2.04232 2.1737,3.08623 2.5699,3.02237 0.1669,-0.0271 0.1389,-0.26085 -0.1389,-1.13873 -0.1789,-0.56498 -0.1858,-0.63714 -0.07,-0.754 0.066,-0.0734 0.1897,-0.11495 0.2637,-0.10058 0.1806,0.0383 0.8083,0.98468 1.6993,2.56452 0.9133,1.6191 1.6132,2.62342 1.1218,1.61016 -0.073,-0.15325 -0.2278,-0.7227 -0.3423,-1.26836 -0.1845,-0.87757 -0.1941,-1.00831 -0.083,-1.13507 0.1134,-0.12931 0.1565,-0.11654 0.4264,0.12931 0.3415,0.30189 0.6263,0.41938 1.0845,0.42864 0.287,0 0.3301,-0.0223 0.5225,-0.34962 0.1309,-0.22238 0.2473,-0.63442 0.3099,-1.09691 0.2632,-1.94925 0.4869,-2.8051 0.7437,-2.84804 0.2684,-0.0447 0.4408,0.36399 0.9373,2.21346 0.6277,2.34133 0.8546,2.78578 1.3788,2.70149 0.2363,-0.0383 0.2716,0.0415 0.5283,1.19429 0.2061,0.92657 0.5445,1.76295 0.8164,2.0187 0.1549,0.13729 0.7347,0.20019 1.2299,0.12452 0.8035,-0.12452 0.9387,0.24585 0.6624,1.81355 -0.2986,1.69478 -0.094,2.79951 0.6502,3.52094 0.1405,0.14528 0.2655,0.31354 0.2671,0.38314 0,0.0718 0.016,0.083 0.03,0.0271 0.019,-0.0686 0.1935,-0.0623 0.5454,0.0192 0.9963,0.22765 2.192,0.0958 3.0937,-0.34196 0.2826,-0.13569 0.3798,-0.15485 0.4425,-0.0846 0.1309,0.14847 0.1469,0.43519 0.032,0.56706 -0.2411,0.27283 -0.4646,1.1116 -0.5582,2.07999 -0.1181,1.22543 -0.2661,1.90152 -0.5989,2.74252 -0.2437,0.61607 -0.2457,0.64001 -0.1086,1.2556 0.1612,0.72414 0.4571,1.19222 0.9702,1.53481 0.4088,0.27188 0.4449,0.54247 0.099,0.7168 -0.1309,0.0655 -0.3336,0.24506 -0.4511,0.39959 -0.1166,0.15486 -0.2732,0.28497 -0.3361,0.29822 -0.065,0.016 -0.3063,-0.0846 -0.5325,-0.21281 -0.5232,-0.29406 -0.9354,-0.25256 -1.2635,0.12772 -0.3865,0.43726 -0.3823,0.5364 -0.016,1.25479 0.5859,1.12661 1.3927,2.34437 2.2706,3.42771 0.9128,1.46984 1.9216,2.19478 3.0901,3.22161 0.4425,0.39097 0.8143,0.77715 0.8261,0.85793 0.035,0.21839 -0.2114,0.60568 -0.4507,0.7077 -0.158,0.067 -0.2686,0.0511 -0.4379,-0.0623 -0.1245,-0.0846 -0.2351,-0.18663 -0.2398,-0.23324 -0.016,-0.0734 -1.1896,-1.58255 -1.9931,-2.55286 -1.3852,-1.67307 -2.6,-3.37631 -3.3696,-4.72482 -0.2417,-0.42241 -0.3212,-0.4735 -0.4328,-0.27171 -0.1293,0.23563 -0.4146,1.13028 -0.6076,1.90998 -0.3345,1.35234 -0.4318,1.57791 -1.0869,2.51981 -0.3493,0.50128 -0.7482,1.16747 -0.8877,1.47974 -0.2799,0.62724 -0.4271,0.76437 -0.6488,0.60393 -0.1581,-0.11494 -0.1641,-0.38602 -0.032,-1.49091 0.069,-0.57664 -0.075,-1.25081 -0.3277,-1.52699 -0.1604,-0.17577 -0.2179,-0.19253 -0.4785,-0.10377 -0.1617,0.0527 -0.4439,0.24649 -0.6262,0.42864 -0.7967,0.79503 -1.9577,1.83031 -2.5275,2.25369 -0.7208,0.5356 -1.1836,0.77379 -1.8613,0.95738 -0.5971,0.16172 -1.861,0.90231 -2.4188,1.41716 -0.3735,0.34563 -0.4286,0.37165 -0.6333,0.30093 -0.1685,-0.0575 -0.234,-0.14528 -0.2672,-0.34914 -0.024,-0.14847 -0.016,-0.29806 0.024,-0.32999 0.096,-0.0814 0.5,-1.81451 0.6531,-2.79679 0.2644,-1.6959 0.2812,-3.26519 0.038,-3.58448 -0.1278,-0.16859 -0.6329,-0.34419 -0.9507,-0.33126 -0.094,0 -0.3631,0 -0.5995,-0.016 -0.5059,-0.0271 -1.1671,0.15805 -2.5126,0.70435 -0.4936,0.20051 -1.1972,0.43391 -1.5637,0.51884 -0.6316,0.14687 -0.675,0.14528 -0.8346,-0.0191 -0.089,-0.099 -0.1808,-0.24905 -0.1946,-0.34244 -0.026,-0.16699 0.051,-1.17546 0.1341,-1.77157 0.1229,-0.87644 -0.2416,-1.26134 -1.7631,-1.86288 -1.2756,-0.50431 -1.3985,-0.60313 -1.2935,-1.0388 0.1229,-0.50814 0.037,-0.73372 -0.454,-1.20754 -0.2492,-0.24138 -0.4615,-0.46967 -0.4713,-0.50815 -0.016,-0.0383 -0.2362,-0.26628 -0.5052,-0.50399 -0.4806,-0.42481 -1.6857,-1.68169 -1.9284,-2.00848 -0.1373,-0.18535 -0.1989,-0.44812 -0.1277,-0.54662 z"
           sodipodi:nodetypes="cssscccscssccscsssccscsccsccccssscsssssssscssssssssssscccssccsssssscsssccsssssscssssccssssscssscssssscsscscscc"
           style="fill:url(#linearGradient12602);stroke-width:1.59643626"
           inkscape:connector-curvature="0" />
        <path
           id="path5460"
           sodipodi:nodetypes="cssscccscssccscsssccscsccsccccssscsssssssscssssssssssscccssccsssssscsssccsssssscssssccssssscssscssssscsscscscc"
           style="fill:url(#linearGradient12604);stroke-width:1.59643626"
           inkscape:connector-curvature="0"
           d="m 1224.3344,-122.10332 c 0,0.1341 -0.3022,0.38953 -0.9018,0.74841 -0.873,0.52219 -1.2347,0.86287 -1.3021,1.22606 -0.096,0.51261 0.3758,1.39704 0.9757,1.83255 0.254,0.18455 0.315,0.25607 0.2847,0.33429 -0.059,0.15166 -0.4572,0.38315 -1.1625,0.67609 -0.8664,0.34643 -0.8859,0.38315 -1.7813,0.76262 -0.5843,0.24745 -0.9349,0.41539 -0.9871,0.47286 -0.064,0.0703 0.2776,0.25208 0.6857,0.36559 0.299,0.0782 0.4366,0.0654 0.9921,-0.11973 1.1653,-0.38922 2.3288,-0.53098 3.3596,-0.40965 1.0324,0.12133 1.3207,0.23723 1.3351,0.53912 -0.024,0.25559 -0.5864,0.46967 -0.7872,0.53704 -0.4764,0.15804 -0.6934,0.40198 -0.687,0.77347 v 0.21456 l 0.4327,0.21792 c 0.651,0.32886 2.3629,0.7765 3.311,0.87564 0.1646,0.016 0.4312,0.0543 0.5919,0.0862 l 0.2922,0.0575 0.016,0.20738 c 0.016,0.22078 -0.1388,0.38458 -0.6527,0.71456 -0.1581,0.10217 -0.2476,0.19764 -0.2716,0.29327 -0.019,0.0782 -0.069,0.14527 -0.1085,0.15006 -0.042,0 -0.03,0.016 0.021,0.0287 0.051,0.016 0.1917,0.17832 0.3102,0.37197 0.5501,0.89576 2.9269,2.34261 5.1879,3.15823 0.3977,0.14368 0.428,0.1689 0.4375,0.36351 0,0.10855 -0.027,0.16698 -0.1214,0.19891 -0.3052,0.016 -0.9214,-0.0686 -1.1531,-0.11973 -1.9468,-0.15007 -3.5295,-0.10217 -4.7966,-0.30604 -0.016,-0.0191 -0.094,0.0415 -0.1871,0.13091 -0.1839,0.17497 -0.1961,0.13889 0.2918,0.83015 0.1245,0.17576 0.1437,0.27251 0.083,0.41539 -0.059,0.14208 -0.1133,0.1871 -0.2177,0.19077 -0.077,0 -0.592,-0.15325 -1.1456,-0.34515 -1.8666,-0.64927 -2.9677,-0.86255 -3.1888,-0.61909 -0.093,0.10217 0.045,0.23834 0.6715,0.65709 0.4034,0.2698 0.4444,0.31242 0.4304,0.44636 0,0.083 -0.061,0.17098 -0.1181,0.19908 -0.1357,0.0687 -1.0202,-0.21696 -2.3979,-0.77076 -1.4117,-0.56849 -2.3726,-0.85314 -1.5406,-0.45594 0.1246,0.0591 0.5152,0.34579 0.8674,0.63618 0.5666,0.46695 0.6395,0.54566 0.6335,0.68343 0,0.14049 -0.04,0.15486 -0.3386,0.1357 -0.3728,-0.0224 -0.615,0.0511 -0.9129,0.28033 -0.1855,0.14368 -0.1992,0.18343 -0.1548,0.49075 0.03,0.20897 0.166,0.53209 0.3625,0.85984 0.8281,1.38123 1.1228,2.0428 0.9804,2.20164 -0.1485,0.16571 -0.4678,0 -1.7309,-0.93647 -1.5985,-1.17641 -1.9706,-1.34451 -2.2629,-1.02283 -0.1309,0.14527 -0.195,0.11334 -0.9485,-0.49362 -0.6053,-0.48707 -1.2493,-0.84899 -1.5538,-0.87341 -0.1686,-0.016 -0.5725,0.24745 -0.8499,0.54949 -0.4504,0.49011 -0.7259,0.32264 -1.3508,-0.8212 -0.6753,-1.23644 -1.3705,-1.83862 -2.2157,-1.91924 -0.1647,-0.016 -0.3299,-0.0639 -0.3659,-0.11175 -0.037,-0.0447 -0.051,-0.0447 -0.032,-0.016 0.022,0.0527 -0.093,0.13889 -0.3581,0.26693 -0.7537,0.36383 -1.4508,1.05955 -1.8038,1.8003 -0.1101,0.23196 -0.1636,0.29342 -0.2395,0.28033 -0.1604,-0.0255 -0.317,-0.20258 -0.3106,-0.3461 0.016,-0.2979 -0.2711,-0.94829 -0.7063,-1.61544 -0.5506,-0.84419 -0.8019,-1.35202 -1.019,-2.06004 -0.1596,-0.51852 -0.17,-0.53496 -0.5723,-0.85856 -0.4734,-0.38075 -0.9017,-0.5289 -1.4052,-0.485 -0.4004,0.0351 -0.5618,-0.11973 -0.4293,-0.40837 0.049,-0.10696 0.085,-0.32791 0.085,-0.48595 0,-0.15965 0.024,-0.32216 0.062,-0.36239 0.037,-0.0415 0.2395,-0.10058 0.4496,-0.1357 0.4846,-0.0798 0.727,-0.31689 0.7426,-0.72766 0.019,-0.47749 -0.03,-0.53832 -0.6362,-0.80668 -0.9506,-0.42082 -2.0891,-0.78736 -3.2043,-1.03129 -1.3351,-0.47351 -2.3508,-0.42114 -3.623,-0.48053 -0.4827,-0.0271 -0.9181,-0.0814 -0.9673,-0.12612 -0.1341,-0.12133 -0.1741,-0.49537 -0.073,-0.68296 0.067,-0.12292 0.1453,-0.17065 0.3123,-0.18375 0.1229,-0.016 0.2453,0 0.2723,0.0271 0.045,0.0415 1.5688,0.40726 2.5797,0.61336 1.7412,0.36127 3.3886,0.82998 4.57,1.29981 0.3703,0.14688 0.4476,0.1373 0.4155,-0.0479 -0.038,-0.2168 -0.3126,-0.93471 -0.5878,-1.53194 -0.4773,-1.03593 -0.5305,-1.22989 -0.5932,-2.16716 -0.034,-0.49921 -0.1182,-1.12932 -0.1886,-1.40024 -0.1421,-0.54422 -0.1181,-0.70706 0.1054,-0.71791 0.1604,0 0.3024,0.16251 0.7829,0.93694 0.2508,0.40406 0.688,0.76103 0.9902,0.80908 0.1926,0.0303 0.2382,0 0.3589,-0.17848 0.077,-0.11654 0.1581,-0.38474 0.1822,-0.59388 0.1022,-0.91587 0.3162,-2.17147 0.4644,-2.73358 0.1847,-0.71169 0.3613,-1.09978 0.7008,-1.56354 0.2992,-0.40869 0.729,-1.52843 0.8223,-2.14274 0.062,-0.41204 0.085,-0.45706 0.2512,-0.51629 0.1357,-0.0495 0.2239,-0.0271 0.3485,0.091 0.093,0.083 0.161,0.18359 0.1532,0.22286 -0.025,0.10058 0.6078,1.4162 1.012,2.12262 0.6978,1.21968 1.4896,2.23182 1.8081,2.31164 0.1677,0.0431 0.5807,-0.10377 0.7772,-0.27411 0.057,-0.0495 0.234,-0.18343 0.3917,-0.29614 0.3375,-0.24106 0.6658,-0.6978 1.2469,-1.73484 0.2126,-0.38075 0.5439,-0.88954 0.7346,-1.13108 0.3292,-0.41651 0.3575,-0.4379 0.5438,-0.41411 0.1085,0.016 0.2441,0.0639 0.2996,0.11973 0.1006,0.0942 0.5685,0.77778 0.8198,1.2018 0.3696,0.62325 0.7992,0.68311 2.0797,0.29007 1.0737,-0.32966 1.2027,-0.32935 1.3584,0 0.1813,0.38761 0.3509,0.48851 0.9076,0.54007 0.283,0.0256 0.5351,0.0639 0.5611,0.0846 0.026,0.0224 0.2869,0.0495 0.5808,0.0639 0.5241,0.0303 1.9377,0.21376 2.2601,0.29885 0.1828,0.0479 0.3563,0.18471 0.3609,0.28417 z" />
        <path
           id="path12323"
           style="color:#000000;text-indent:0;text-transform:none;opacity:0.48012001;fill:#552200;stroke-width:1.59643626"
           inkscape:connector-curvature="0"
           d="m 1217.1504,-208.47053 -0.499,0.44892 c 0,0 10.3406,11.58135 15.2661,17.5608 2.6622,3.23182 7.7326,9.92792 7.7326,9.92792 l 0.5487,-0.3493 c 0,0 -5.099,-6.72004 -7.7826,-9.97773 -4.9469,-6.00531 -15.2659,-17.61029 -15.2658,-17.61029 z" />
        <path
           id="path12345"
           sodipodi:nodetypes="ccc"
           style="opacity:0.15;fill:#ffffff;filter:url(#filter12347)"
           inkscape:connector-curvature="0"
           d="m 3211.1,1401.1 c 28.622,7.6603 51.912,4.4884 71.088,-21.114 -6.0784,27.481 -53.112,37.157 -71.088,21.114 z"
           transform="matrix(1.5964363,0,0,1.5964363,-3990.1055,-2374.5153)" />
      </g>
      <rect
         transform="rotate(5.6634332)"
         id="rect6250"
         style="color:#000000;opacity:0;stroke-width:11.29623699"
         height="182.73323"
         width="182.73323"
         y="-53.380623"
         x="867.26227" />
      <g
         transform="matrix(0.90920636,0.09016485,-0.09016485,0.90920636,98.671643,147.48265)"
         id="g1884">
        <rect
           style="opacity:1;fill:url(#linearGradient1634);fill-opacity:1;stroke:none;stroke-width:0.98028785;stroke-miterlimit:4;stroke-dasharray:none;stroke-opacity:1"
           id="rect1632"
           width="2.9274786"
           height="122.9541"
           x="823.8833"
           y="278.54562"
           ry="2.11429"
           transform="rotate(-26.652712)" />
        <path
           inkscape:connector-curvature="0"
           style="opacity:0.3;fill:#000000;fill-opacity:1;stroke:none;stroke-width:0.98028785;stroke-miterlimit:4;stroke-dasharray:none;stroke-opacity:1;filter:url(#filter1823)"
           d="m 869.86133,-193.16016 c 0,0 -23.95453,16.76509 -37.92383,27.32227 -1.15674,3.31443 -2.10881,6.80798 -2.92773,10.4082 -0.0175,0.0769 -0.0354,0.15347 -0.0527,0.23047 -0.17699,0.78485 -0.3473,1.57437 -0.51172,2.36914 -0.0101,0.0487 -0.0193,0.0977 -0.0293,0.14649 -0.485,2.3565 -0.90679,4.75852 -1.30274,7.17968 -0.18728,1.14347 -0.37826,2.28498 -0.55078,3.4375 -0.17992,1.2041 -0.34821,2.41287 -0.51562,3.62305 -0.0982,0.70851 -0.19804,1.41351 -0.29297,2.12305 -0.13518,1.01233 -0.27005,2.02073 -0.40039,3.0332 -19.94227,-9.85126 -38.82032,-19.23828 -38.82032,-19.23828 0,0 8.73315,27.90189 14.57032,44.41016 2.18646,1.63841 4.51598,3.19082 6.93945,4.68164 0.002,0.002 0.005,0.002 0.008,0.004 0.65075,0.40024 1.31003,0.79437 1.97461,1.18555 0.13727,0.0808 0.27429,0.16175 0.41211,0.24219 0.65386,0.38156 1.31295,0.75918 1.97852,1.13281 0.0586,0.0329 0.11704,0.0667 0.17578,0.0996 2.44796,1.369754 4.97931,2.67963 7.54297,3.962889 0.65216,0.326651 1.29608,0.660102 1.95312,0.982422 1.14725,0.562419 2.3032,1.112718 3.46094,1.664063 0.59738,0.284687 1.19002,0.571228 1.78906,0.853515 0.54154,0.255013 1.0788,0.514235 1.62109,0.767579 -15.82773,15.349583 -30.77148,29.763671 -30.77148,29.763671 0,0 29.21671,1.12726 46.72656,1.16211 2.88642,-1.915342 5.71729,-4.092746 8.50977,-6.429688 0.12511,-0.104687 0.25006,-0.209089 0.375,-0.314453 0.60911,-0.51375 1.21708,-1.033621 1.82226,-1.5625 0.0138,-0.01203 0.0272,-0.02507 0.041,-0.03711 1.83939,-1.608696 3.65632,-3.294644 5.46289,-5.011719 0.82938,-0.787908 1.65915,-1.571478 2.48242,-2.375 0.73454,-0.717295 1.46332,-1.443574 2.19336,-2.169922 0.69892,-0.694996 1.39473,-1.387481 2.08984,-2.08789 0.62892,-0.634047 1.25677,-1.264107 1.88282,-1.900391 9.87622,19.915882 19.18164,38.8125 19.18164,38.8125 0,0 1.92487,-5.331635 4.35156,-12.152344 l 22.18945,44.210938 c 0.52543,1.046854 1.53112,1.596181 2.25586,1.232421 0.72475,-0.363759 0.88676,-1.50002 0.36133,-2.546874 l -23.44726,-46.714844 c 3.1567,-8.929298 6.96708,-19.887133 9.63867,-28.177735 -0.74487,-2.628817 -1.65685,-5.276438 -2.67969,-7.93164 -0.004,-0.01167 -0.009,-0.02349 -0.0137,-0.03516 -0.28142,-0.729808 -0.57438,-1.460362 -0.87305,-2.191406 -0.0393,-0.09628 -0.0776,-0.192763 -0.11719,-0.289062 -0.31292,-0.76058 -0.6333,-1.52168 -0.96289,-2.2832 -0.005,-0.0117 -0.0106,-0.0235 -0.0156,-0.0352 -1.07105,-2.4729 -2.23929,-4.94736 -3.44531,-7.42187 -0.3838,-0.78796 -0.75902,-1.576 -1.15235,-2.36328 -0.54083,-1.08183 -1.09404,-2.16058 -1.64844,-3.24024 -0.32713,-0.63752 -0.65004,-1.27368 -0.98046,-1.91015 -0.43474,-0.83685 -0.8664,-1.67126 -1.30469,-2.50586 21.96919,-3.23673 42.77734,-6.24414 42.77734,-6.24414 0,0 -23.05456,-17.97982 -37.24609,-28.23633 -2.73084,-0.10373 -5.5312,-0.0549 -8.37305,0.0977 0,0 -0.002,0 -0.002,0 -4.24904,0.22821 -8.60311,0.71868 -12.99219,1.32812 -0.97683,0.1354 -1.9518,0.26286 -2.93164,0.41016 -1.22437,0.18439 -2.44921,0.38347 -3.67578,0.58203 -0.67933,0.10978 -1.35581,0.21517 -2.03516,0.32812 -1.13167,0.18847 -2.25872,0.37615 -3.38867,0.57032 3.36471,-22.03614 6.61719,-42.95118 6.61719,-42.95118 z"
           id="rect948" />
        <g
           id="g1673"
           inkscape:transform-center-x="-1.7207471"
           inkscape:transform-center-y="2.2150935"
           transform="matrix(-0.69248934,0.02749346,-0.02749346,-0.69248934,1415.125,199.50089)">
          <path
             sodipodi:nodetypes="ccsscc"
             inkscape:connector-curvature="0"
             id="path1660"
             d="m 763.68107,597.34793 c 0,0 16.08961,-81.73263 22.72608,-117.83868 12.58441,-6.65182 26.58584,0.69503 44.8702,5.73113 1.73049,0.47664 4.67995,1.47235 4.32776,3.31646 -4.50684,23.60004 -7.27968,50.25562 -15.68126,71.57049 -20.74517,14.42162 -56.24278,37.2206 -56.24278,37.2206 z"
             style="fill:url(#radialGradient1774);fill-opacity:1;stroke:none;stroke-width:1px;stroke-linecap:butt;stroke-linejoin:miter;stroke-opacity:1" />
          <path
             id="path1662"
             d="m 786.40659,479.50946 c -0.44083,2.39827 -1.01504,5.4354 -1.53177,8.19895 7.84445,6.78029 19.8202,17.77055 25.1852,26.07458 5.61967,8.69816 10.9175,25.25365 13.72921,34.89927 5.53226,-18.96264 8.08476,-40.58619 11.81601,-60.12472 0.35219,-1.84411 -2.59827,-2.84026 -4.32876,-3.3169 -18.28437,-5.0361 -32.28548,-12.38299 -44.86989,-5.73118 z"
             style="fill:url(#linearGradient1796);fill-opacity:1;stroke:none;stroke-width:1px;stroke-linecap:butt;stroke-linejoin:miter;stroke-opacity:1"
             inkscape:connector-curvature="0" />
          <path
             style="fill:url(#radialGradient1590);fill-opacity:1;stroke:none;stroke-width:1px;stroke-linecap:butt;stroke-linejoin:miter;stroke-opacity:1"
             d="m 675.25152,495.82589 c 0,0 82.85593,-8.60195 119.31993,-12.85242 10.05171,10.07855 7.1368,25.61944 7.68766,44.57668 0.0521,1.79418 -0.0343,4.90597 -1.90054,5.11042 -23.88361,2.61664 -50.17942,7.78756 -73.02131,6.01038 -19.87414,-15.60013 -52.08574,-42.84506 -52.08574,-42.84506 z"
             id="path1671"
             inkscape:connector-curvature="0"
             sodipodi:nodetypes="ccsscc" />
          <path
             style="fill:url(#linearGradient1511);fill-opacity:1;stroke:none;stroke-width:1px;stroke-linecap:butt;stroke-linejoin:miter;stroke-opacity:1"
             d="m 794.57107,482.97299 c -2.42204,0.28233 -5.49397,0.6246 -8.28749,0.94153 -4.17998,9.48871 -11.17232,24.1622 -17.53651,31.72774 -6.66625,7.92463 -20.93838,17.84721 -29.33432,23.36552 19.75123,-0.27559 41.17188,-4.18058 60.94519,-6.34689 1.86628,-0.20444 1.9528,-3.31732 1.90066,-5.1115 -0.55087,-18.95724 2.36418,-34.49784 -7.68753,-44.5764 z"
             id="path1673"
             inkscape:connector-curvature="0" />
          <path
             sodipodi:nodetypes="ccsscc"
             inkscape:connector-curvature="0"
             id="path1677"
             d="m 744.65034,382.19218 c 0,0 33.77847,76.14534 49.08612,109.51247 -6.48019,12.67364 -22.16138,14.70249 -40.02109,21.08302 -1.6903,0.60387 -4.67657,1.48304 -5.44757,-0.22877 -9.86719,-21.90691 -22.90893,-45.3189 -28.27539,-67.59245 8.69713,-23.72141 24.65793,-62.77427 24.65793,-62.77427 z"
             style="fill:url(#radialGradient1742);fill-opacity:1;stroke:none;stroke-width:1px;stroke-linecap:butt;stroke-linejoin:miter;stroke-opacity:1" />
          <path
             inkscape:connector-curvature="0"
             id="path1679"
             d="m 793.73679,491.70415 c -1.01675,-2.21636 -2.29132,-5.03227 -3.45578,-7.59121 -10.3159,-1.0441 -26.4318,-3.16119 -35.59338,-6.87678 -9.59643,-3.89193 -23.44283,-14.40045 -31.285,-20.68087 6.364,18.69991 16.69561,37.86632 24.86466,56.00311 0.77101,1.71181 3.75834,0.83242 5.44865,0.22856 17.85971,-6.38053 33.54067,-8.40916 40.02085,-21.08281 z"
             style="fill:url(#linearGradient1760);fill-opacity:1;stroke:none;stroke-width:1px;stroke-linecap:butt;stroke-linejoin:miter;stroke-opacity:1" />
          <path
             style="fill:url(#radialGradient673);fill-opacity:1;stroke:none;stroke-width:1px;stroke-linecap:butt;stroke-linejoin:miter;stroke-opacity:1"
             d="m 874.4834,413.4635 c 0,0 -62.22539,55.38139 -89.33858,80.13143 -14.04579,-2.30865 -20.75798,-16.62516 -32.27881,-31.69004 -1.09036,-1.4258 -2.83797,-4.00196 -1.44263,-5.25807 17.85668,-16.07522 36.17917,-35.63269 55.75695,-47.53313 25.24357,1.05255 67.30307,4.34981 67.30307,4.34981 z"
             id="path1683"
             inkscape:connector-curvature="0"
             sodipodi:nodetypes="ccsscc" />
          <path
             style="fill:url(#linearGradient645);fill-opacity:1;stroke:none;stroke-width:1px;stroke-linecap:butt;stroke-linejoin:miter;stroke-opacity:1"
             d="m 785.1454,493.5951 c 1.80094,-1.64396 4.09435,-3.7162 6.17658,-5.60526 -2.15007,-10.14323 -5.04613,-26.13751 -4.29996,-35.99567 0.78156,-10.32608 6.56935,-26.71671 10.16046,-36.10007 -15.87014,11.7612 -30.97517,27.44339 -45.75878,40.75209 -1.39534,1.25611 0.3528,3.83322 1.44317,5.25902 11.52083,15.06488 18.23274,29.38124 32.27853,31.68989 z"
             id="path1685"
             inkscape:connector-curvature="0" />
          <path
             sodipodi:nodetypes="ccsscc"
             inkscape:connector-curvature="0"
             id="path1689"
             d="m 886.14885,543.53252 c 0,0 -73.03707,-40.05851 -105.44432,-57.30552 -2.53366,-14.00695 8.7042,-25.1302 19.03507,-41.0347 0.97776,-1.50525 2.81898,-4.01536 4.47018,-3.12186 21.13126,11.43431 45.69943,22.14007 63.47448,36.59544 7.47101,24.13564 18.46459,64.86664 18.46459,64.86664 z"
             style="fill:url(#radialGradient683);fill-opacity:1;stroke:none;stroke-width:1px;stroke-linecap:butt;stroke-linejoin:miter;stroke-opacity:1" />
          <path
             inkscape:connector-curvature="0"
             id="path1691"
             d="m 780.70456,486.2276 c 2.15258,1.14561 4.87375,2.6116 7.35154,3.94005 8.83547,-5.42606 22.93334,-13.51645 32.47118,-16.11832 9.99055,-2.72539 27.373,-2.7673 37.41726,-2.52968 -16.40092,-11.00895 -36.23945,-19.98261 -53.73406,-29.44912 -1.65119,-0.8935 -3.49314,1.61743 -4.47089,3.12269 -10.33088,15.9045 -21.56869,27.02743 -19.03503,41.03438 z"
             style="fill:url(#linearGradient659);fill-opacity:1;stroke:none;stroke-width:1px;stroke-linecap:butt;stroke-linejoin:miter;stroke-opacity:1" />
          <ellipse
             transform="rotate(-26.652712)"
             ry="12.092451"
             rx="12.320612"
             cy="788.79828"
             cx="482.87769"
             id="path1602"
             style="opacity:1;fill:url(#radialGradient1610);fill-opacity:1;stroke:none;stroke-width:1.16603792;stroke-miterlimit:4;stroke-dasharray:none;stroke-opacity:1" />
        </g>
        <path
           style="color:#000000;font-style:normal;font-variant:normal;font-weight:normal;font-stretch:normal;font-size:medium;line-height:normal;font-family:sans-serif;font-variant-ligatures:normal;font-variant-position:normal;font-variant-caps:normal;font-variant-numeric:normal;font-variant-alternates:normal;font-feature-settings:normal;text-indent:0;text-align:start;text-decoration:none;text-decoration-line:none;text-decoration-style:solid;text-decoration-color:#000000;letter-spacing:normal;word-spacing:normal;text-transform:none;writing-mode:lr-tb;direction:ltr;text-orientation:mixed;dominant-baseline:auto;baseline-shift:baseline;text-anchor:start;white-space:normal;shape-padding:0;clip-rule:nonzero;display:inline;overflow:visible;visibility:visible;opacity:0.4;isolation:auto;mix-blend-mode:normal;color-interpolation:sRGB;color-interpolation-filters:linearRGB;solid-color:#000000;solid-opacity:1;vector-effect:none;fill:url(#linearGradient2388);fill-opacity:1;fill-rule:nonzero;stroke:none;stroke-width:1.6094842;stroke-linecap:butt;stroke-linejoin:miter;stroke-miterlimit:4;stroke-dasharray:none;stroke-dashoffset:0;stroke-opacity:1;filter:url(#filter2420);color-rendering:auto;image-rendering:auto;shape-rendering:auto;text-rendering:auto;enable-background:accumulate"
           d="m 948.66292,-137.29867 c 0,25.57023 -11.9242,49.57936 -32.0449,64.54882 l 0.9609,1.29297 c 20.5376,-15.27961 32.6934,-39.7712 32.6934,-65.84179 z"
           id="path2233"
           inkscape:connector-curvature="0"
           transform="rotate(153.07359,860.71324,-128.75223)" />
        <path
           style="color:#000000;font-style:normal;font-variant:normal;font-weight:normal;font-stretch:normal;font-size:medium;line-height:normal;font-family:sans-serif;font-variant-ligatures:normal;font-variant-position:normal;font-variant-caps:normal;font-variant-numeric:normal;font-variant-alternates:normal;font-feature-settings:normal;text-indent:0;text-align:start;text-decoration:none;text-decoration-line:none;text-decoration-style:solid;text-decoration-color:#000000;letter-spacing:normal;word-spacing:normal;text-transform:none;writing-mode:lr-tb;direction:ltr;text-orientation:mixed;dominant-baseline:auto;baseline-shift:baseline;text-anchor:start;white-space:normal;shape-padding:0;clip-rule:nonzero;display:inline;overflow:visible;visibility:visible;opacity:0.3;isolation:auto;mix-blend-mode:normal;color-interpolation:sRGB;color-interpolation-filters:linearRGB;solid-color:#000000;solid-opacity:1;vector-effect:none;fill:url(#linearGradient2402);fill-opacity:1;fill-rule:nonzero;stroke:none;stroke-width:1.6094842;stroke-linecap:butt;stroke-linejoin:miter;stroke-miterlimit:4;stroke-dasharray:none;stroke-dashoffset:0;stroke-opacity:1;filter:url(#filter2412);color-rendering:auto;image-rendering:auto;shape-rendering:auto;text-rendering:auto;enable-background:accumulate"
           d="m 895.89739,-61.55869 c -24.47422,7.40604 -50.90978,2.9474 -71.06529,-11.9752 l -0.95735,1.29367 c 20.57309,15.23177 47.53564,19.77289 72.48877,12.22193 z"
           id="path2235"
           inkscape:connector-curvature="0"
           transform="rotate(153.07359,860.71324,-128.75223)" />
        <path
           style="color:#000000;font-style:normal;font-variant:normal;font-weight:normal;font-stretch:normal;font-size:medium;line-height:normal;font-family:sans-serif;font-variant-ligatures:normal;font-variant-position:normal;font-variant-caps:normal;font-variant-numeric:normal;font-variant-alternates:normal;font-feature-settings:normal;text-indent:0;text-align:start;text-decoration:none;text-decoration-line:none;text-decoration-style:solid;text-decoration-color:#000000;letter-spacing:normal;word-spacing:normal;text-transform:none;writing-mode:lr-tb;direction:ltr;text-orientation:mixed;dominant-baseline:auto;baseline-shift:baseline;text-anchor:start;white-space:normal;shape-padding:0;clip-rule:nonzero;display:inline;overflow:visible;visibility:visible;opacity:0.36000001;isolation:auto;mix-blend-mode:normal;color-interpolation:sRGB;color-interpolation-filters:linearRGB;solid-color:#000000;solid-opacity:1;vector-effect:none;fill:url(#linearGradient2311);fill-opacity:1;fill-rule:nonzero;stroke:none;stroke-width:1.6094842;stroke-linecap:butt;stroke-linejoin:miter;stroke-miterlimit:4;stroke-dasharray:none;stroke-dashoffset:0;stroke-opacity:1;filter:url(#filter2357);color-rendering:auto;image-rendering:auto;shape-rendering:auto;text-rendering:auto;enable-background:accumulate"
           d="m 805.15964,-90.89284 c -14.1651,-21.28819 -17.53912,-47.88395 -9.08045,-71.49283 l -1.51521,-0.54249 c -8.6339,24.09801 -5.18649,51.2221 9.25579,72.92687 z"
           id="path2237"
           inkscape:connector-curvature="0"
           transform="rotate(153.07359,860.71324,-128.75223)" />
        <path
           style="color:#000000;font-style:normal;font-variant:normal;font-weight:normal;font-stretch:normal;font-size:medium;line-height:normal;font-family:sans-serif;font-variant-ligatures:normal;font-variant-position:normal;font-variant-caps:normal;font-variant-numeric:normal;font-variant-alternates:normal;font-feature-settings:normal;text-indent:0;text-align:start;text-decoration:none;text-decoration-line:none;text-decoration-style:solid;text-decoration-color:#000000;letter-spacing:normal;word-spacing:normal;text-transform:none;writing-mode:lr-tb;direction:ltr;text-orientation:mixed;dominant-baseline:auto;baseline-shift:baseline;text-anchor:start;white-space:normal;shape-padding:0;clip-rule:nonzero;display:inline;overflow:visible;visibility:visible;opacity:0.3;isolation:auto;mix-blend-mode:normal;color-interpolation:sRGB;color-interpolation-filters:linearRGB;solid-color:#000000;solid-opacity:1;vector-effect:none;fill:url(#linearGradient2319);fill-opacity:1;fill-rule:nonzero;stroke:none;stroke-width:1.6094842;stroke-linecap:butt;stroke-linejoin:miter;stroke-miterlimit:4;stroke-dasharray:none;stroke-dashoffset:0;stroke-opacity:1;filter:url(#filter2329);color-rendering:auto;image-rendering:auto;shape-rendering:auto;text-rendering:auto;enable-background:accumulate"
           d="m 804.27184,-186.14834 c 16.15134,-19.82349 40.56217,-30.90637 65.6163,-29.80237 l 0.0705,-1.60784 c -25.57322,-1.12687 -50.46708,10.18225 -66.93447,30.39365 z"
           id="path2239"
           inkscape:connector-curvature="0"
           transform="rotate(153.07359,860.71324,-128.75223)" />
        <path
           style="color:#000000;font-style:normal;font-variant:normal;font-weight:normal;font-stretch:normal;font-size:medium;line-height:normal;font-family:sans-serif;font-variant-ligatures:normal;font-variant-position:normal;font-variant-caps:normal;font-variant-numeric:normal;font-variant-alternates:normal;font-feature-settings:normal;text-indent:0;text-align:start;text-decoration:none;text-decoration-line:none;text-decoration-style:solid;text-decoration-color:#000000;letter-spacing:normal;word-spacing:normal;text-transform:none;writing-mode:lr-tb;direction:ltr;text-orientation:mixed;dominant-baseline:auto;baseline-shift:baseline;text-anchor:start;white-space:normal;shape-padding:0;clip-rule:nonzero;display:inline;overflow:visible;visibility:visible;opacity:0.3;isolation:auto;mix-blend-mode:normal;color-interpolation:sRGB;color-interpolation-filters:linearRGB;solid-color:#000000;solid-opacity:1;vector-effect:none;fill:url(#linearGradient2367);fill-opacity:1;fill-rule:nonzero;stroke:none;stroke-width:1.6094842;stroke-linecap:butt;stroke-linejoin:miter;stroke-miterlimit:4;stroke-dasharray:none;stroke-dashoffset:0;stroke-opacity:1;filter:url(#filter2377);color-rendering:auto;image-rendering:auto;shape-rendering:auto;text-rendering:auto;enable-background:accumulate"
           d="m 891.61108,-214.41951 c 24.42854,7.55528 43.84184,26.04296 52.19794,49.68838 l 1.5192,-0.53599 c -8.5293,-24.13533 -28.335,-42.98679 -53.24161,-50.68991 z"
           id="path2241"
           inkscape:connector-curvature="0"
           transform="rotate(153.07359,860.71324,-128.75223)" />
        <path
           inkscape:connector-curvature="0"
           id="path2475"
           d="m 1042.4082,118.10938 c 0,25.57023 -11.9242,49.57936 -32.0449,64.54882 l 0.9609,1.29297 c 20.5376,-15.27961 32.6934,-39.7712 32.6934,-65.84179 z"
           style="color:#000000;font-style:normal;font-variant:normal;font-weight:normal;font-stretch:normal;font-size:medium;line-height:normal;font-family:sans-serif;font-variant-ligatures:normal;font-variant-position:normal;font-variant-caps:normal;font-variant-numeric:normal;font-variant-alternates:normal;font-feature-settings:normal;text-indent:0;text-align:start;text-decoration:none;text-decoration-line:none;text-decoration-style:solid;text-decoration-color:#000000;letter-spacing:normal;word-spacing:normal;text-transform:none;writing-mode:lr-tb;direction:ltr;text-orientation:mixed;dominant-baseline:auto;baseline-shift:baseline;text-anchor:start;white-space:normal;shape-padding:0;clip-rule:nonzero;display:inline;overflow:visible;visibility:visible;opacity:0.4;isolation:auto;mix-blend-mode:normal;color-interpolation:sRGB;color-interpolation-filters:linearRGB;solid-color:#000000;solid-opacity:1;vector-effect:none;fill:url(#linearGradient4398);fill-opacity:1;fill-rule:nonzero;stroke:none;stroke-width:1.6094842;stroke-linecap:butt;stroke-linejoin:miter;stroke-miterlimit:4;stroke-dasharray:none;stroke-dashoffset:0;stroke-opacity:1;filter:url(#filter2420);color-rendering:auto;image-rendering:auto;shape-rendering:auto;text-rendering:auto;enable-background:accumulate"
           transform="matrix(-0.83898006,0.4261252,-0.4261252,-0.83898006,1715.1833,-428.51726)" />
        <path
           inkscape:connector-curvature="0"
           id="path2477"
           d="m 989.64267,193.84936 c -24.47422,7.40604 -50.90978,2.9474 -71.06529,-11.9752 l -0.95735,1.29367 c 20.57309,15.23177 47.53564,19.77289 72.48877,12.22193 z"
           style="color:#000000;font-style:normal;font-variant:normal;font-weight:normal;font-stretch:normal;font-size:medium;line-height:normal;font-family:sans-serif;font-variant-ligatures:normal;font-variant-position:normal;font-variant-caps:normal;font-variant-numeric:normal;font-variant-alternates:normal;font-feature-settings:normal;text-indent:0;text-align:start;text-decoration:none;text-decoration-line:none;text-decoration-style:solid;text-decoration-color:#000000;letter-spacing:normal;word-spacing:normal;text-transform:none;writing-mode:lr-tb;direction:ltr;text-orientation:mixed;dominant-baseline:auto;baseline-shift:baseline;text-anchor:start;white-space:normal;shape-padding:0;clip-rule:nonzero;display:inline;overflow:visible;visibility:visible;opacity:0.3;isolation:auto;mix-blend-mode:normal;color-interpolation:sRGB;color-interpolation-filters:linearRGB;solid-color:#000000;solid-opacity:1;vector-effect:none;fill:url(#linearGradient4400);fill-opacity:1;fill-rule:nonzero;stroke:none;stroke-width:1.6094842;stroke-linecap:butt;stroke-linejoin:miter;stroke-miterlimit:4;stroke-dasharray:none;stroke-dashoffset:0;stroke-opacity:1;filter:url(#filter2412);color-rendering:auto;image-rendering:auto;shape-rendering:auto;text-rendering:auto;enable-background:accumulate"
           transform="matrix(-0.83898006,0.4261252,-0.4261252,-0.83898006,1715.1833,-428.51726)" />
        <path
           inkscape:connector-curvature="0"
           id="path2480"
           d="m 898.90492,164.51521 c -14.1651,-21.28819 -17.53912,-47.88395 -9.08045,-71.492831 l -1.51521,-0.542494 c -8.6339,24.098015 -5.18649,51.222105 9.25579,72.926875 z"
           style="color:#000000;font-style:normal;font-variant:normal;font-weight:normal;font-stretch:normal;font-size:medium;line-height:normal;font-family:sans-serif;font-variant-ligatures:normal;font-variant-position:normal;font-variant-caps:normal;font-variant-numeric:normal;font-variant-alternates:normal;font-feature-settings:normal;text-indent:0;text-align:start;text-decoration:none;text-decoration-line:none;text-decoration-style:solid;text-decoration-color:#000000;letter-spacing:normal;word-spacing:normal;text-transform:none;writing-mode:lr-tb;direction:ltr;text-orientation:mixed;dominant-baseline:auto;baseline-shift:baseline;text-anchor:start;white-space:normal;shape-padding:0;clip-rule:nonzero;display:inline;overflow:visible;visibility:visible;opacity:0.36000001;isolation:auto;mix-blend-mode:normal;color-interpolation:sRGB;color-interpolation-filters:linearRGB;solid-color:#000000;solid-opacity:1;vector-effect:none;fill:url(#linearGradient4402);fill-opacity:1;fill-rule:nonzero;stroke:none;stroke-width:1.6094842;stroke-linecap:butt;stroke-linejoin:miter;stroke-miterlimit:4;stroke-dasharray:none;stroke-dashoffset:0;stroke-opacity:1;filter:url(#filter2357);color-rendering:auto;image-rendering:auto;shape-rendering:auto;text-rendering:auto;enable-background:accumulate"
           transform="matrix(-0.83898006,0.4261252,-0.4261252,-0.83898006,1715.1833,-428.51726)" />
        <path
           inkscape:connector-curvature="0"
           id="path2482"
           d="m 898.01712,69.259707 c 16.15134,-19.823491 40.56217,-30.906365 65.6163,-29.802367 l 0.0705,-1.607839 C 938.1307,36.722628 913.23684,48.031749 896.76945,68.243148 Z"
           style="color:#000000;font-style:normal;font-variant:normal;font-weight:normal;font-stretch:normal;font-size:medium;line-height:normal;font-family:sans-serif;font-variant-ligatures:normal;font-variant-position:normal;font-variant-caps:normal;font-variant-numeric:normal;font-variant-alternates:normal;font-feature-settings:normal;text-indent:0;text-align:start;text-decoration:none;text-decoration-line:none;text-decoration-style:solid;text-decoration-color:#000000;letter-spacing:normal;word-spacing:normal;text-transform:none;writing-mode:lr-tb;direction:ltr;text-orientation:mixed;dominant-baseline:auto;baseline-shift:baseline;text-anchor:start;white-space:normal;shape-padding:0;clip-rule:nonzero;display:inline;overflow:visible;visibility:visible;opacity:0.3;isolation:auto;mix-blend-mode:normal;color-interpolation:sRGB;color-interpolation-filters:linearRGB;solid-color:#000000;solid-opacity:1;vector-effect:none;fill:url(#linearGradient4404);fill-opacity:1;fill-rule:nonzero;stroke:none;stroke-width:1.6094842;stroke-linecap:butt;stroke-linejoin:miter;stroke-miterlimit:4;stroke-dasharray:none;stroke-dashoffset:0;stroke-opacity:1;filter:url(#filter2329);color-rendering:auto;image-rendering:auto;shape-rendering:auto;text-rendering:auto;enable-background:accumulate"
           transform="matrix(-0.83898006,0.4261252,-0.4261252,-0.83898006,1715.1833,-428.51726)" />
        <path
           inkscape:connector-curvature="0"
           id="path2484"
           d="m 985.35636,40.988539 c 24.42854,7.555276 43.84184,26.04296 52.19794,49.688383 l 1.5192,-0.535991 c -8.5293,-24.135335 -28.335,-42.986788 -53.24161,-50.689907 z"
           style="color:#000000;font-style:normal;font-variant:normal;font-weight:normal;font-stretch:normal;font-size:medium;line-height:normal;font-family:sans-serif;font-variant-ligatures:normal;font-variant-position:normal;font-variant-caps:normal;font-variant-numeric:normal;font-variant-alternates:normal;font-feature-settings:normal;text-indent:0;text-align:start;text-decoration:none;text-decoration-line:none;text-decoration-style:solid;text-decoration-color:#000000;letter-spacing:normal;word-spacing:normal;text-transform:none;writing-mode:lr-tb;direction:ltr;text-orientation:mixed;dominant-baseline:auto;baseline-shift:baseline;text-anchor:start;white-space:normal;shape-padding:0;clip-rule:nonzero;display:inline;overflow:visible;visibility:visible;opacity:0.3;isolation:auto;mix-blend-mode:normal;color-interpolation:sRGB;color-interpolation-filters:linearRGB;solid-color:#000000;solid-opacity:1;vector-effect:none;fill:url(#linearGradient4406);fill-opacity:1;fill-rule:nonzero;stroke:none;stroke-width:1.6094842;stroke-linecap:butt;stroke-linejoin:miter;stroke-miterlimit:4;stroke-dasharray:none;stroke-dashoffset:0;stroke-opacity:1;filter:url(#filter2377);color-rendering:auto;image-rendering:auto;shape-rendering:auto;text-rendering:auto;enable-background:accumulate"
           transform="matrix(-0.83898006,0.4261252,-0.4261252,-0.83898006,1715.1833,-428.51726)" />
        <path
           style="color:#000000;font-style:normal;font-variant:normal;font-weight:normal;font-stretch:normal;font-size:medium;line-height:normal;font-family:sans-serif;font-variant-ligatures:normal;font-variant-position:normal;font-variant-caps:normal;font-variant-numeric:normal;font-variant-alternates:normal;font-feature-settings:normal;text-indent:0;text-align:start;text-decoration:none;text-decoration-line:none;text-decoration-style:solid;text-decoration-color:#000000;letter-spacing:normal;word-spacing:normal;text-transform:none;writing-mode:lr-tb;direction:ltr;text-orientation:mixed;dominant-baseline:auto;baseline-shift:baseline;text-anchor:start;white-space:normal;shape-padding:0;clip-rule:nonzero;display:inline;overflow:visible;visibility:visible;opacity:0.4;isolation:auto;mix-blend-mode:normal;color-interpolation:sRGB;color-interpolation-filters:linearRGB;solid-color:#000000;solid-opacity:1;vector-effect:none;fill:url(#linearGradient2488);fill-opacity:1;fill-rule:nonzero;stroke:none;stroke-width:1.6094842;stroke-linecap:butt;stroke-linejoin:miter;stroke-miterlimit:4;stroke-dasharray:none;stroke-dashoffset:0;stroke-opacity:1;filter:url(#filter2420);color-rendering:auto;image-rendering:auto;shape-rendering:auto;text-rendering:auto;enable-background:accumulate"
           d="m 1042.4082,118.10938 c 0,25.57023 -11.9242,49.57936 -32.0449,64.54882 l 0.9609,1.29297 c 20.5376,-15.27961 32.6934,-39.7712 32.6934,-65.84179 z"
           id="path2498"
           inkscape:connector-curvature="0"
           transform="matrix(-0.78637122,0.39940471,-0.39940471,-0.78637122,1661.3133,-408.98479)" />
        <path
           style="color:#000000;font-style:normal;font-variant:normal;font-weight:normal;font-stretch:normal;font-size:medium;line-height:normal;font-family:sans-serif;font-variant-ligatures:normal;font-variant-position:normal;font-variant-caps:normal;font-variant-numeric:normal;font-variant-alternates:normal;font-feature-settings:normal;text-indent:0;text-align:start;text-decoration:none;text-decoration-line:none;text-decoration-style:solid;text-decoration-color:#000000;letter-spacing:normal;word-spacing:normal;text-transform:none;writing-mode:lr-tb;direction:ltr;text-orientation:mixed;dominant-baseline:auto;baseline-shift:baseline;text-anchor:start;white-space:normal;shape-padding:0;clip-rule:nonzero;display:inline;overflow:visible;visibility:visible;opacity:0.3;isolation:auto;mix-blend-mode:normal;color-interpolation:sRGB;color-interpolation-filters:linearRGB;solid-color:#000000;solid-opacity:1;vector-effect:none;fill:url(#linearGradient2490);fill-opacity:1;fill-rule:nonzero;stroke:none;stroke-width:1.6094842;stroke-linecap:butt;stroke-linejoin:miter;stroke-miterlimit:4;stroke-dasharray:none;stroke-dashoffset:0;stroke-opacity:1;filter:url(#filter2412);color-rendering:auto;image-rendering:auto;shape-rendering:auto;text-rendering:auto;enable-background:accumulate"
           d="m 989.64267,193.84936 c -24.47422,7.40604 -50.90978,2.9474 -71.06529,-11.9752 l -0.95735,1.29367 c 20.57309,15.23177 47.53564,19.77289 72.48877,12.22193 z"
           id="path2500"
           inkscape:connector-curvature="0"
           transform="matrix(-0.78637122,0.39940471,-0.39940471,-0.78637122,1661.3133,-408.98479)" />
        <path
           style="color:#000000;font-style:normal;font-variant:normal;font-weight:normal;font-stretch:normal;font-size:medium;line-height:normal;font-family:sans-serif;font-variant-ligatures:normal;font-variant-position:normal;font-variant-caps:normal;font-variant-numeric:normal;font-variant-alternates:normal;font-feature-settings:normal;text-indent:0;text-align:start;text-decoration:none;text-decoration-line:none;text-decoration-style:solid;text-decoration-color:#000000;letter-spacing:normal;word-spacing:normal;text-transform:none;writing-mode:lr-tb;direction:ltr;text-orientation:mixed;dominant-baseline:auto;baseline-shift:baseline;text-anchor:start;white-space:normal;shape-padding:0;clip-rule:nonzero;display:inline;overflow:visible;visibility:visible;opacity:0.36000001;isolation:auto;mix-blend-mode:normal;color-interpolation:sRGB;color-interpolation-filters:linearRGB;solid-color:#000000;solid-opacity:1;vector-effect:none;fill:url(#linearGradient2492);fill-opacity:1;fill-rule:nonzero;stroke:none;stroke-width:1.6094842;stroke-linecap:butt;stroke-linejoin:miter;stroke-miterlimit:4;stroke-dasharray:none;stroke-dashoffset:0;stroke-opacity:1;filter:url(#filter2357);color-rendering:auto;image-rendering:auto;shape-rendering:auto;text-rendering:auto;enable-background:accumulate"
           d="m 898.90492,164.51521 c -14.1651,-21.28819 -17.53912,-47.88395 -9.08045,-71.492831 l -1.51521,-0.542494 c -8.6339,24.098015 -5.18649,51.222105 9.25579,72.926875 z"
           id="path2502"
           inkscape:connector-curvature="0"
           transform="matrix(-0.78637122,0.39940471,-0.39940471,-0.78637122,1661.3133,-408.98479)" />
        <path
           style="color:#000000;font-style:normal;font-variant:normal;font-weight:normal;font-stretch:normal;font-size:medium;line-height:normal;font-family:sans-serif;font-variant-ligatures:normal;font-variant-position:normal;font-variant-caps:normal;font-variant-numeric:normal;font-variant-alternates:normal;font-feature-settings:normal;text-indent:0;text-align:start;text-decoration:none;text-decoration-line:none;text-decoration-style:solid;text-decoration-color:#000000;letter-spacing:normal;word-spacing:normal;text-transform:none;writing-mode:lr-tb;direction:ltr;text-orientation:mixed;dominant-baseline:auto;baseline-shift:baseline;text-anchor:start;white-space:normal;shape-padding:0;clip-rule:nonzero;display:inline;overflow:visible;visibility:visible;opacity:0.3;isolation:auto;mix-blend-mode:normal;color-interpolation:sRGB;color-interpolation-filters:linearRGB;solid-color:#000000;solid-opacity:1;vector-effect:none;fill:url(#linearGradient2494);fill-opacity:1;fill-rule:nonzero;stroke:none;stroke-width:1.6094842;stroke-linecap:butt;stroke-linejoin:miter;stroke-miterlimit:4;stroke-dasharray:none;stroke-dashoffset:0;stroke-opacity:1;filter:url(#filter2329);color-rendering:auto;image-rendering:auto;shape-rendering:auto;text-rendering:auto;enable-background:accumulate"
           d="m 898.01712,69.259707 c 16.15134,-19.823491 40.56217,-30.906365 65.6163,-29.802367 l 0.0705,-1.607839 C 938.1307,36.722628 913.23684,48.031749 896.76945,68.243148 Z"
           id="path2504"
           inkscape:connector-curvature="0"
           transform="matrix(-0.78637122,0.39940471,-0.39940471,-0.78637122,1661.3133,-408.98479)" />
        <path
           style="color:#000000;font-style:normal;font-variant:normal;font-weight:normal;font-stretch:normal;font-size:medium;line-height:normal;font-family:sans-serif;font-variant-ligatures:normal;font-variant-position:normal;font-variant-caps:normal;font-variant-numeric:normal;font-variant-alternates:normal;font-feature-settings:normal;text-indent:0;text-align:start;text-decoration:none;text-decoration-line:none;text-decoration-style:solid;text-decoration-color:#000000;letter-spacing:normal;word-spacing:normal;text-transform:none;writing-mode:lr-tb;direction:ltr;text-orientation:mixed;dominant-baseline:auto;baseline-shift:baseline;text-anchor:start;white-space:normal;shape-padding:0;clip-rule:nonzero;display:inline;overflow:visible;visibility:visible;opacity:0.3;isolation:auto;mix-blend-mode:normal;color-interpolation:sRGB;color-interpolation-filters:linearRGB;solid-color:#000000;solid-opacity:1;vector-effect:none;fill:url(#linearGradient2496);fill-opacity:1;fill-rule:nonzero;stroke:none;stroke-width:1.6094842;stroke-linecap:butt;stroke-linejoin:miter;stroke-miterlimit:4;stroke-dasharray:none;stroke-dashoffset:0;stroke-opacity:1;filter:url(#filter2377);color-rendering:auto;image-rendering:auto;shape-rendering:auto;text-rendering:auto;enable-background:accumulate"
           d="m 985.35636,40.988539 c 24.42854,7.555276 43.84184,26.04296 52.19794,49.688383 l 1.5192,-0.535991 c -8.5293,-24.135335 -28.335,-42.986788 -53.24161,-50.689907 z"
           id="path2506"
           inkscape:connector-curvature="0"
           transform="matrix(-0.78637122,0.39940471,-0.39940471,-0.78637122,1661.3133,-408.98479)" />
      </g>
    </g>
  </g>
</svg>
